<?xml version="1.0" encoding="UTF-8"?>
<!DOCTYPE svg PUBLIC "-//W3C//DTD SVG 1.1//EN" "http://www.w3.org/Graphics/SVG/1.1/DTD/svg11.dtd">
<!-- Creator: CorelDRAW 2021.5 -->
<svg xmlns="http://www.w3.org/2000/svg" xml:space="preserve" width="763px" height="484px" version="1.1" style="shape-rendering:geometricPrecision; text-rendering:geometricPrecision; image-rendering:optimizeQuality; fill-rule:evenodd; clip-rule:evenodd"
viewBox="0 0 447.369 283.76"
 xmlns:xlink="http://www.w3.org/1999/xlink"
 xmlns:xodm="http://www.corel.com/coreldraw/odm/2003">
 <defs>
  <style type="text/css">
   <![CDATA[
    .str3 {stroke:#E1E4E5;stroke-width:3.065;stroke-miterlimit:22.9256}
    .str2 {stroke:#2B2B2A;stroke-width:0.587;stroke-miterlimit:22.9256}
    .str0 {stroke:#31344B;stroke-width:0.587;stroke-miterlimit:22.9256}
    .str1 {stroke:white;stroke-width:0.587;stroke-miterlimit:22.9256}
    .str5 {stroke:white;stroke-width:2.16;stroke-linecap:round;stroke-linejoin:round;stroke-miterlimit:22.9256}
    .str4 {stroke:#E1E4E5;stroke-width:2.504;stroke-linecap:round;stroke-linejoin:round;stroke-miterlimit:22.9256}
    .fil40 {fill:none}
    .fil5 {fill:none;fill-rule:nonzero}
    .fil32 {fill:white}
    .fil39 {fill:#E1E4E5}
    .fil46 {fill:white}
    .fil45 {fill:#002C54;fill-rule:nonzero}
    .fil21 {fill:#181C31;fill-rule:nonzero}
    .fil4 {fill:#212539;fill-rule:nonzero}
    .fil24 {fill:#2CB07A;fill-rule:nonzero}
    .fil23 {fill:#34BFE9;fill-rule:nonzero}
    .fil19 {fill:#4A6CF7;fill-rule:nonzero}
    .fil14 {fill:#58EBBA;fill-rule:nonzero}
    .fil1 {fill:#77F28A;fill-rule:nonzero}
    .fil36 {fill:#7E5130;fill-rule:nonzero}
    .fil17 {fill:#808CB1;fill-rule:nonzero}
    .fil6 {fill:#A9A8F6;fill-rule:nonzero}
    .fil42 {fill:#B55E63;fill-rule:nonzero}
    .fil16 {fill:#B8C2E1;fill-rule:nonzero}
    .fil12 {fill:#B8D8FF;fill-rule:nonzero}
    .fil27 {fill:#CFD8DC;fill-rule:nonzero}
    .fil22 {fill:#D81C57;fill-rule:nonzero}
    .fil38 {fill:#E1E4E5;fill-rule:nonzero}
    .fil25 {fill:#E4AC2C;fill-rule:nonzero}
    .fil26 {fill:#ECEFF1;fill-rule:nonzero}
    .fil2 {fill:#EF5C00;fill-rule:nonzero}
    .fil28 {fill:#F44336;fill-rule:nonzero}
    .fil35 {fill:#F6A266;fill-rule:nonzero}
    .fil41 {fill:#F8AE9D;fill-rule:nonzero}
    .fil10 {fill:#FF8E8E;fill-rule:nonzero}
    .fil8 {fill:#FFD280;fill-rule:nonzero}
    .fil3 {fill:#FFDB26;fill-rule:nonzero}
    .fil0 {fill:white;fill-rule:nonzero}
    .fil18 {fill:white;fill-rule:nonzero;fill-opacity:0.760784}
    .fil31 {fill:url(#id5);fill-rule:nonzero}
    .fil20 {fill:url(#id6);fill-rule:nonzero}
    .fil30 {fill:url(#id7);fill-rule:nonzero}
    .fil43 {fill:url(#id8);fill-rule:nonzero}
    .fil11 {fill:url(#id9);fill-rule:nonzero}
    .fil9 {fill:url(#id10);fill-rule:nonzero}
    .fil13 {fill:url(#id11);fill-rule:nonzero}
    .fil44 {fill:url(#id12);fill-rule:nonzero}
    .fil15 {fill:url(#id13);fill-rule:nonzero}
    .fil7 {fill:url(#id14);fill-rule:nonzero}
    .fil29 {fill:url(#id15);fill-rule:nonzero}
    .fil34 {fill:url(#id16);fill-rule:nonzero}
    .fil33 {fill:url(#id17);fill-rule:nonzero}
    .fil37 {fill:url(#id18);fill-rule:nonzero}
   ]]>
  </style>
      <clipPath id="id0" style="clip-rule:nonzero">
       <path d="M52.436 53.956c0,-7.304 -5.921,-13.226 -13.226,-13.226 -7.305,0 -13.227,5.922 -13.227,13.226 0,7.305 5.922,13.227 13.227,13.227 7.305,0 13.226,-5.922 13.226,-13.227z"/>
      </clipPath>
      <clipPath id="id1" style="clip-rule:nonzero">
       <path d="M52.436 101.294c0,-7.305 -5.921,-13.227 -13.226,-13.227 -7.305,0 -13.227,5.922 -13.227,13.227 0,7.305 5.922,13.226 13.227,13.226 7.305,0 13.226,-5.921 13.226,-13.226z"/>
      </clipPath>
      <clipPath id="id2" style="clip-rule:nonzero">
       <path d="M52.436 148.63c0,-7.305 -5.922,-13.227 -13.226,-13.227 -7.305,0 -13.227,5.922 -13.227,13.227 0,7.304 5.922,13.226 13.227,13.226 7.304,0 13.226,-5.922 13.226,-13.226z"/>
      </clipPath>
      <clipPath id="id3" style="clip-rule:nonzero">
       <path d="M52.436 195.967c0,-7.305 -5.922,-13.227 -13.226,-13.227 -7.305,0 -13.227,5.922 -13.227,13.227 0,7.304 5.922,13.226 13.227,13.226 7.304,0 13.226,-5.922 13.226,-13.226z"/>
      </clipPath>
      <clipPath id="id4" style="clip-rule:nonzero">
       <path d="M52.436 243.303c0,-7.304 -5.921,-13.226 -13.226,-13.226 -7.305,0 -13.227,5.922 -13.227,13.226 0,7.305 5.922,13.227 13.227,13.227 7.305,0 13.226,-5.922 13.226,-13.227z"/>
      </clipPath>
  <linearGradient id="id5" gradientUnits="userSpaceOnUse" x1="404.053" y1="185.528" x2="339.504" y2="185.528">
   <stop offset="0" style="stop-opacity:1; stop-color:#FCE866"/>
   <stop offset="1" style="stop-opacity:0; stop-color:#FCE866"/>
  </linearGradient>
  <linearGradient id="id6" gradientUnits="userSpaceOnUse" x1="301.015" y1="131.654" x2="300.376" y2="331.692">
   <stop offset="0" style="stop-opacity:0.34902; stop-color:#CDD5F7"/>
   <stop offset="1" style="stop-opacity:0; stop-color:#CDD5F7"/>
  </linearGradient>
  <linearGradient id="id7" gradientUnits="userSpaceOnUse" x1="308.684" y1="154.023" x2="389.85" y2="154.023">
   <stop offset="0" style="stop-opacity:1; stop-color:#FF8E8E"/>
   <stop offset="0.831373" style="stop-opacity:0; stop-color:#FF8E8E"/>
   <stop offset="1" style="stop-opacity:1; stop-color:#FF8E8E"/>
  </linearGradient>
  <linearGradient id="id8" gradientUnits="userSpaceOnUse" x1="185.775" y1="238.848" x2="186.287" y2="217.32">
   <stop offset="0" style="stop-opacity:1; stop-color:white"/>
   <stop offset="1" style="stop-opacity:1; stop-color:#EEEEEE"/>
  </linearGradient>
  <linearGradient id="id9" gradientUnits="userSpaceOnUse" x1="64.549" y1="148.271" x2="131.654" y2="148.271">
   <stop offset="0" style="stop-opacity:1; stop-color:#434A66"/>
   <stop offset="1" style="stop-opacity:0; stop-color:#434A66"/>
  </linearGradient>
  <linearGradient id="id10" gradientUnits="userSpaceOnUse" xlink:href="#id9" x1="64.549" y1="100.978" x2="131.654" y2="100.978">
  </linearGradient>
  <linearGradient id="id11" gradientUnits="userSpaceOnUse" xlink:href="#id9" x1="64.549" y1="195.564" x2="131.654" y2="195.564">
  </linearGradient>
  <linearGradient id="id12" gradientUnits="userSpaceOnUse" xlink:href="#id8" x1="203.201" y1="238.848" x2="203.201" y2="217.32">
  </linearGradient>
  <linearGradient id="id13" gradientUnits="userSpaceOnUse" xlink:href="#id9" x1="64.549" y1="242.857" x2="131.654" y2="242.857">
  </linearGradient>
  <linearGradient id="id14" gradientUnits="userSpaceOnUse" xlink:href="#id9" x1="64.549" y1="53.684" x2="131.654" y2="53.684">
  </linearGradient>
  <linearGradient id="id15" gradientUnits="userSpaceOnUse" x1="193.008" y1="198.12" x2="270.338" y2="198.12">
   <stop offset="0" style="stop-opacity:1; stop-color:#67FCE2"/>
   <stop offset="1" style="stop-opacity:0; stop-color:#67FCE2"/>
  </linearGradient>
  <linearGradient id="id16" gradientUnits="userSpaceOnUse" xlink:href="#id8" x1="246.255" y1="256.787" x2="246.255" y2="223.984">
  </linearGradient>
  <linearGradient id="id17" gradientUnits="userSpaceOnUse" xlink:href="#id8" x1="239.386" y1="345.146" x2="236.155" y2="-143.132">
  </linearGradient>
  <linearGradient id="id18" gradientUnits="userSpaceOnUse" xlink:href="#id8" x1="74.715" y1="121.266" x2="130.233" y2="54.334">
  </linearGradient>
 </defs>
 <g id="Layer_x0020_1">
  <metadata id="CorelCorpID_0Corel-Layer"/>
  <g id="_105553123751552">
   <g>
    <path class="fil0" d="M6.391 0l434.587 0c3.529,0 6.391,2.862 6.391,6.391l0 270.978c0,3.528 -2.862,6.39 -6.391,6.39l-434.587 0.001c-3.529,-0.001 -6.391,-2.863 -6.391,-6.392l0 -270.977c0,-3.529 2.862,-6.391 6.391,-6.391z"/>
    <path class="fil1" d="M38.5 17.994c1.501,0 2.718,-1.247 2.718,-2.786 0,-1.539 -1.217,-2.786 -2.718,-2.786 -1.501,0 -2.718,1.247 -2.718,2.786 0,1.539 1.217,2.786 2.718,2.786z"/>
    <path class="fil2" d="M18.64 17.994c1.501,0 2.717,-1.247 2.717,-2.786 0,-1.539 -1.216,-2.786 -2.717,-2.786 -1.501,0 -2.718,1.247 -2.718,2.786 0,1.539 1.217,2.786 2.718,2.786z"/>
    <path class="fil3" d="M28.368 17.994c1.501,0 2.718,-1.247 2.718,-2.786 0,-1.539 -1.217,-2.786 -2.718,-2.786 -1.501,0 -2.717,1.247 -2.717,2.786 0,1.539 1.216,2.786 2.717,2.786z"/>
    <path class="fil4" d="M18.534 30.038l410.301 0c2.118,0 3.835,1.717 3.835,3.834l0 231.354c0,2.117 -1.717,3.834 -3.835,3.834l-410.301 0c-2.117,0 -3.835,-1.717 -3.835,-3.835l0 -231.353c0,-2.117 1.718,-3.834 3.835,-3.834z"/>
    <polygon class="fil0" points="156.579,30.038 432.67,30.038 432.67,269.06 156.579,269.06 "/>
    <line class="fil5 str0" x1="14.845" y1="77.305" x2="156.856" y2= "77.305" />
    <line class="fil5 str0" x1="14.845" y1="124.641" x2="156.856" y2= "124.641" />
    <line class="fil5 str0" x1="14.845" y1="171.979" x2="156.856" y2= "171.979" />
    <line class="fil5 str0" x1="14.845" y1="219.316" x2="156.856" y2= "219.316" />
    <circle class="fil6" cx="39.21" cy="53.956" r="13.226"/>
    <g>
     <g style="clip-path:url(#id0)">
      <image x="25.983" y="40.73" width="26.453" height="26.453" xlink:href="hero-light_Images/hero-light_ImgID1.png"/>
     </g>
    </g>
    <path class="fil7" d="M67.752 51.172l61.259 0c1.538,0 2.785,1.247 2.785,2.784l-0.001 0c0.001,1.538 -1.246,2.785 -2.784,2.785l-61.259 0c-1.538,0 -2.785,-1.247 -2.785,-2.785l0 0c0,-1.537 1.247,-2.784 2.785,-2.784z"/>
    <circle class="fil8" cx="39.21" cy="101.294" r="13.226"/>
    <g>
     <g style="clip-path:url(#id1)">
      <image x="25.983" y="88.067" width="26.453" height="26.453" xlink:href="hero-light_Images/hero-light_ImgID2.png"/>
     </g>
    </g>
    <path class="fil9" d="M67.751 98.51l61.259 0c1.538,0 2.785,1.247 2.785,2.785l0 0c0,1.537 -1.247,2.784 -2.784,2.784l-61.26 0c-1.538,0 -2.785,-1.247 -2.785,-2.784l0 0c0,-1.538 1.247,-2.785 2.785,-2.785z"/>
    <circle class="fil10" cx="39.21" cy="148.63" r="13.226"/>
    <g>
     <g style="clip-path:url(#id2)">
      <image x="25.983" y="135.403" width="26.453" height="26.453" xlink:href="hero-light_Images/hero-light_ImgID3.png"/>
     </g>
    </g>
    <path class="fil11" d="M67.751 145.846l61.259 0c1.538,0 2.785,1.247 2.785,2.784l0 0.001c0,1.537 -1.247,2.784 -2.784,2.784l-61.26 0c-1.538,0 -2.785,-1.247 -2.785,-2.785l0 0.001c0,-1.538 1.247,-2.785 2.785,-2.785z"/>
    <circle class="fil12" cx="39.21" cy="195.967" r="13.226"/>
    <g>
     <g style="clip-path:url(#id3)">
      <image x="25.983" y="182.74" width="26.453" height="26.453" xlink:href="hero-light_Images/hero-light_ImgID4.png"/>
     </g>
    </g>
    <path class="fil13" d="M67.751 193.182l61.259 0c1.538,0 2.785,1.247 2.785,2.784l0 0.001c0,1.537 -1.247,2.784 -2.784,2.784l-61.26 0c-1.538,0 -2.785,-1.247 -2.785,-2.785l0 0.001c0,-1.538 1.247,-2.785 2.785,-2.785z"/>
    <circle class="fil14" cx="39.21" cy="243.303" r="13.226"/>
    <g>
     <g style="clip-path:url(#id4)">
      <image x="25.983" y="230.077" width="26.453" height="26.453" xlink:href="hero-light_Images/hero-light_ImgID5.png"/>
     </g>
    </g>
    <path class="fil15" d="M67.752 240.519l61.259 0c1.538,-0.001 2.785,1.246 2.785,2.784l-0.001 0c0.001,1.538 -1.246,2.785 -2.784,2.785l-61.259 0c-1.538,0 -2.785,-1.247 -2.785,-2.785l0 0c0,-1.538 1.247,-2.785 2.785,-2.785z"/>
    <rect class="fil16" x="169.361" y="30.037" width="121.429" height="89.474"/>
    <circle class="fil5 str1" cx="230.292" cy="74.991" r="10.122"/>
    <path class="fil0" d="M230.291 71.859l0 0c0.346,0 0.627,0.28 0.627,0.626l0 5.013c0,0.345 -0.281,0.626 -0.627,0.626l0 0c-0.345,0 -0.626,-0.281 -0.626,-0.626l0 -5.013c0,-0.346 0.281,-0.626 0.626,-0.626z"/>
    <path class="fil0" d="M227.159 74.99l0 0c0,-0.345 0.281,-0.626 0.626,-0.626l5.013 0c0.346,0 0.626,0.281 0.626,0.626l0 0c0,0.346 -0.28,0.627 -0.626,0.627l-5.012 0c-0.346,0 -0.627,-0.281 -0.627,-0.627z"/>
    <path class="fil17" d="M304.211 30.038l124.624 0c2.118,0 3.835,1.717 3.835,3.834l0 85.639 -128.459 0 0 -89.473z"/>
    <g filter="url(#filter0_b_32_80)">
     <path class="fil18" d="M378.779 74.991c0,-5.767 -4.675,-10.442 -10.442,-10.442 -5.767,0 -10.442,4.675 -10.442,10.442 0,5.767 4.675,10.442 10.442,10.442 5.767,0 10.442,-4.675 10.442,-10.442z"/>
    </g>
    <path class="fil19" d="M370.66 74.438c0.426,0.246 0.426,0.861 0,1.107l-3.005 1.735c-0.426,0.246 -0.959,-0.062 -0.959,-0.553l0 -3.47c0,-0.493 0.533,-0.8 0.959,-0.554l3.005 1.735z"/>
    <path class="fil20" d="M169.361 131.654l263.309 0 0 133.572c0,2.118 -1.717,3.834 -3.835,3.834l-259.474 0 0 -137.406z"/>
    <g filter="url(#filter1_d_32_80)">
     <path class="fil0" d="M197.928 155.591l78.662 0c6.535,0 11.834,5.299 11.834,11.834l0 0c0,6.535 -5.299,11.834 -11.834,11.834l-78.662 0c-6.535,0 -11.834,-5.299 -11.834,-11.834l-0.001 0c0.001,-6.535 5.3,-11.834 11.835,-11.834z"/>
    </g>
    <path class="fil21" d="M216.527 166.426c-0.031,-0.281 -0.162,-0.499 -0.392,-0.653 -0.229,-0.156 -0.517,-0.234 -0.866,-0.234 -0.249,0 -0.464,0.039 -0.646,0.118 -0.182,0.078 -0.324,0.184 -0.425,0.321 -0.098,0.134 -0.148,0.287 -0.148,0.46 0,0.144 0.034,0.269 0.101,0.374 0.069,0.104 0.159,0.192 0.27,0.263 0.113,0.07 0.234,0.128 0.362,0.175 0.129,0.046 0.252,0.083 0.371,0.113l0.593 0.154c0.194,0.048 0.393,0.112 0.596,0.193 0.204,0.082 0.393,0.188 0.567,0.32 0.174,0.133 0.315,0.297 0.421,0.493 0.109,0.196 0.163,0.43 0.163,0.703 0,0.344 -0.089,0.649 -0.266,0.917 -0.177,0.267 -0.433,0.477 -0.769,0.632 -0.335,0.154 -0.738,0.231 -1.213,0.231 -0.455,0 -0.849,-0.072 -1.18,-0.217 -0.333,-0.144 -0.593,-0.349 -0.781,-0.614 -0.188,-0.267 -0.292,-0.583 -0.312,-0.949l0.92 0c0.018,0.219 0.089,0.403 0.214,0.549 0.126,0.144 0.287,0.252 0.483,0.323 0.198,0.07 0.414,0.104 0.65,0.104 0.259,0 0.489,-0.041 0.691,-0.121 0.204,-0.084 0.364,-0.198 0.48,-0.345 0.117,-0.148 0.176,-0.321 0.176,-0.519 0,-0.18 -0.051,-0.327 -0.154,-0.442 -0.101,-0.114 -0.239,-0.21 -0.413,-0.285 -0.172,-0.075 -0.367,-0.141 -0.585,-0.198l-0.717 -0.196c-0.487,-0.133 -0.873,-0.328 -1.158,-0.585 -0.282,-0.257 -0.423,-0.597 -0.423,-1.02 0,-0.35 0.094,-0.656 0.284,-0.917 0.19,-0.261 0.448,-0.464 0.772,-0.608 0.324,-0.146 0.69,-0.219 1.098,-0.219 0.411,0 0.774,0.072 1.088,0.216 0.316,0.145 0.565,0.344 0.748,0.597 0.181,0.251 0.276,0.54 0.284,0.866l-0.884 0z"/>
    <polygon class="fil21" points="219.406,164.83 219.406,170.905 218.519,170.905 218.519,164.83 "/>
    <path class="fil21" d="M221.925 171.006c-0.289,0 -0.55,-0.054 -0.784,-0.16 -0.233,-0.109 -0.418,-0.266 -0.554,-0.472 -0.135,-0.206 -0.202,-0.458 -0.202,-0.756 0,-0.258 0.05,-0.469 0.149,-0.635 0.098,-0.166 0.232,-0.298 0.4,-0.395 0.168,-0.097 0.356,-0.17 0.563,-0.22 0.208,-0.049 0.42,-0.086 0.636,-0.112 0.273,-0.032 0.494,-0.058 0.664,-0.077 0.17,-0.022 0.294,-0.057 0.371,-0.104 0.077,-0.047 0.115,-0.125 0.115,-0.231l0 -0.021c0,-0.259 -0.073,-0.46 -0.219,-0.602 -0.145,-0.143 -0.36,-0.214 -0.647,-0.214 -0.298,0 -0.534,0.066 -0.706,0.199 -0.17,0.13 -0.288,0.276 -0.353,0.436l-0.833 -0.19c0.098,-0.277 0.242,-0.5 0.432,-0.671 0.193,-0.171 0.413,-0.296 0.662,-0.373 0.249,-0.08 0.511,-0.118 0.787,-0.118 0.181,0 0.374,0.021 0.578,0.065 0.205,0.041 0.398,0.118 0.575,0.231 0.18,0.113 0.327,0.274 0.442,0.483 0.115,0.208 0.172,0.478 0.172,0.811l0 3.025 -0.866 0 0 -0.623 -0.035 0c-0.058,0.115 -0.144,0.227 -0.259,0.338 -0.114,0.111 -0.262,0.203 -0.442,0.276 -0.18,0.074 -0.395,0.11 -0.646,0.11zm0.192 -0.712c0.246,0 0.455,-0.048 0.629,-0.146 0.177,-0.096 0.31,-0.223 0.401,-0.379 0.092,-0.158 0.139,-0.327 0.139,-0.507l0 -0.588c-0.031,0.032 -0.092,0.061 -0.184,0.089 -0.089,0.026 -0.19,0.049 -0.305,0.068 -0.115,0.018 -0.227,0.035 -0.335,0.051 -0.109,0.014 -0.2,0.026 -0.273,0.036 -0.173,0.021 -0.33,0.058 -0.472,0.11 -0.14,0.051 -0.253,0.125 -0.338,0.222 -0.083,0.094 -0.124,0.222 -0.124,0.379 0,0.22 0.08,0.386 0.242,0.499 0.163,0.11 0.369,0.166 0.62,0.166z"/>
    <path class="fil21" d="M227.274 170.997c-0.441,0 -0.821,-0.1 -1.139,-0.3 -0.317,-0.202 -0.559,-0.479 -0.73,-0.833 -0.17,-0.354 -0.255,-0.759 -0.255,-1.216 0,-0.463 0.087,-0.871 0.261,-1.225 0.174,-0.356 0.42,-0.634 0.736,-0.834 0.316,-0.2 0.689,-0.299 1.118,-0.299 0.346,0 0.655,0.063 0.926,0.192 0.271,0.126 0.489,0.305 0.655,0.534 0.168,0.23 0.268,0.497 0.3,0.804l-0.863 0c-0.048,-0.214 -0.157,-0.397 -0.327,-0.552 -0.168,-0.154 -0.393,-0.231 -0.676,-0.231 -0.247,0 -0.464,0.065 -0.65,0.196 -0.183,0.128 -0.327,0.312 -0.43,0.551 -0.103,0.237 -0.154,0.519 -0.154,0.843 0,0.332 0.05,0.619 0.151,0.86 0.101,0.241 0.243,0.428 0.427,0.561 0.186,0.132 0.405,0.199 0.656,0.199 0.168,0 0.32,-0.031 0.457,-0.092 0.138,-0.064 0.254,-0.154 0.347,-0.27 0.094,-0.117 0.161,-0.257 0.199,-0.422l0.863 0c-0.032,0.295 -0.128,0.558 -0.288,0.79 -0.16,0.231 -0.374,0.413 -0.643,0.545 -0.268,0.133 -0.581,0.199 -0.941,0.199z"/>
    <path class="fil21" d="M230.91 169.36l-0.006 -1.084 0.154 0 1.816 -1.928 1.062 0 -2.071 2.196 -0.139 0 -0.816 0.816zm-0.815 1.545l0 -6.075 0.887 0 0 6.075 -0.887 0zm2.877 0l-1.632 -2.165 0.611 -0.621 2.11 2.786 -1.089 0z"/>
    <polygon class="fil21" points="237.943,164.83 237.943,170.905 237.026,170.905 237.026,164.83 "/>
    <path class="fil21" d="M240.094 168.2l0 2.705 -0.887 0 0 -4.557 0.851 0 0 0.742 0.056 0c0.105,-0.241 0.269,-0.435 0.493,-0.581 0.225,-0.147 0.509,-0.219 0.851,-0.219 0.31,0 0.583,0.065 0.816,0.195 0.233,0.128 0.414,0.32 0.543,0.575 0.128,0.256 0.193,0.571 0.193,0.947l0 2.898 -0.888 0 0 -2.792c0,-0.33 -0.085,-0.588 -0.257,-0.773 -0.173,-0.188 -0.409,-0.282 -0.71,-0.282 -0.205,0 -0.388,0.044 -0.548,0.133 -0.158,0.089 -0.284,0.22 -0.377,0.391 -0.091,0.17 -0.136,0.376 -0.136,0.618z"/>
    <path class="fil21" d="M246.326 166.348l0 0.712 -2.489 0 0 -0.712 2.489 0zm-1.821 -1.091l0.887 0 0 4.31c0,0.172 0.025,0.302 0.077,0.389 0.051,0.085 0.117,0.143 0.199,0.175 0.083,0.03 0.173,0.044 0.27,0.044 0.071,0 0.133,-0.005 0.187,-0.014 0.053,-0.011 0.095,-0.018 0.124,-0.024l0.161 0.732c-0.052,0.02 -0.125,0.04 -0.22,0.06 -0.095,0.022 -0.214,0.033 -0.356,0.035 -0.234,0.004 -0.451,-0.037 -0.653,-0.124 -0.202,-0.087 -0.365,-0.222 -0.489,-0.403 -0.125,-0.183 -0.187,-0.411 -0.187,-0.686l0 -4.494z"/>
    <path class="fil21" d="M249.222 170.997c-0.449,0 -0.835,-0.096 -1.16,-0.287 -0.322,-0.195 -0.571,-0.466 -0.747,-0.817 -0.175,-0.352 -0.261,-0.764 -0.261,-1.236 0,-0.467 0.086,-0.878 0.261,-1.234 0.176,-0.356 0.421,-0.634 0.736,-0.834 0.316,-0.2 0.685,-0.299 1.109,-0.299 0.257,0 0.506,0.042 0.747,0.126 0.242,0.086 0.459,0.219 0.65,0.401 0.192,0.182 0.343,0.418 0.454,0.709 0.11,0.289 0.166,0.64 0.166,1.053l0 0.315 -3.622 0 0 -0.665 2.753 0c0,-0.233 -0.047,-0.439 -0.142,-0.62 -0.095,-0.182 -0.229,-0.325 -0.401,-0.43 -0.17,-0.105 -0.37,-0.157 -0.599,-0.157 -0.249,0 -0.466,0.061 -0.652,0.184 -0.185,0.121 -0.327,0.279 -0.428,0.475 -0.099,0.193 -0.148,0.404 -0.148,0.631l0 0.519c0,0.305 0.053,0.564 0.16,0.778 0.109,0.213 0.26,0.376 0.454,0.489 0.193,0.111 0.42,0.166 0.679,0.166 0.168,0 0.322,-0.024 0.46,-0.071 0.138,-0.049 0.258,-0.123 0.359,-0.219 0.101,-0.097 0.178,-0.217 0.231,-0.359l0.84 0.151c-0.068,0.247 -0.188,0.464 -0.363,0.649 -0.171,0.184 -0.388,0.328 -0.649,0.431 -0.259,0.101 -0.554,0.151 -0.887,0.151z"/>
    <path class="fil21" d="M254.072 172.709c-0.362,0 -0.674,-0.048 -0.935,-0.143 -0.259,-0.095 -0.471,-0.22 -0.634,-0.376 -0.165,-0.157 -0.287,-0.327 -0.368,-0.513l0.762 -0.315c0.053,0.087 0.124,0.179 0.213,0.275 0.091,0.099 0.214,0.184 0.368,0.253 0.157,0.069 0.357,0.103 0.602,0.103 0.337,0 0.615,-0.081 0.834,-0.246 0.22,-0.162 0.329,-0.421 0.329,-0.777l0 -0.896 -0.056 0c-0.053,0.098 -0.13,0.206 -0.232,0.323 -0.098,0.12 -0.235,0.222 -0.409,0.309 -0.174,0.087 -0.4,0.131 -0.679,0.131 -0.36,0 -0.684,-0.084 -0.973,-0.252 -0.287,-0.17 -0.514,-0.421 -0.682,-0.751 -0.166,-0.332 -0.249,-0.741 -0.249,-1.225 0,-0.485 0.081,-0.9 0.246,-1.246 0.166,-0.346 0.394,-0.611 0.682,-0.795 0.289,-0.186 0.616,-0.278 0.982,-0.278 0.282,0 0.511,0.047 0.685,0.141 0.174,0.094 0.309,0.202 0.407,0.327 0.098,0.125 0.175,0.234 0.228,0.329l0.065 0 0 -0.739 0.87 0 0 4.658c0,0.392 -0.092,0.713 -0.273,0.964 -0.182,0.251 -0.428,0.437 -0.739,0.558 -0.309,0.12 -0.657,0.181 -1.044,0.181zm-0.009 -2.608c0.255,0 0.47,-0.059 0.646,-0.178 0.178,-0.12 0.313,-0.292 0.404,-0.516 0.093,-0.226 0.139,-0.495 0.139,-0.81 0,-0.307 -0.045,-0.576 -0.136,-0.809 -0.092,-0.234 -0.224,-0.416 -0.401,-0.546 -0.176,-0.133 -0.393,-0.199 -0.652,-0.199 -0.267,0 -0.49,0.069 -0.668,0.207 -0.178,0.137 -0.312,0.323 -0.404,0.558 -0.088,0.235 -0.133,0.498 -0.133,0.789 0,0.299 0.046,0.561 0.137,0.786 0.09,0.226 0.225,0.402 0.403,0.528 0.18,0.127 0.401,0.19 0.665,0.19z"/>
    <path class="fil21" d="M257.317 170.905l0 -4.557 0.857 0 0 0.724 0.048 0c0.083,-0.245 0.229,-0.437 0.439,-0.578 0.212,-0.143 0.45,-0.213 0.718,-0.213 0.055,0 0.121,0.002 0.195,0.005 0.078,0.004 0.138,0.009 0.181,0.015l0 0.849c-0.035,-0.01 -0.098,-0.021 -0.19,-0.033 -0.091,-0.014 -0.181,-0.021 -0.273,-0.021 -0.209,0 -0.396,0.045 -0.56,0.134 -0.162,0.087 -0.291,0.208 -0.386,0.365 -0.095,0.153 -0.142,0.33 -0.142,0.527l0 2.783 -0.887 0z"/>
    <path class="fil21" d="M261.808 171.006c-0.288,0 -0.55,-0.054 -0.783,-0.16 -0.233,-0.109 -0.419,-0.266 -0.555,-0.472 -0.134,-0.206 -0.202,-0.458 -0.202,-0.756 0,-0.258 0.05,-0.469 0.148,-0.635 0.1,-0.166 0.233,-0.298 0.401,-0.395 0.168,-0.097 0.356,-0.17 0.564,-0.22 0.208,-0.049 0.419,-0.086 0.634,-0.112 0.273,-0.032 0.495,-0.058 0.665,-0.077 0.17,-0.022 0.294,-0.057 0.371,-0.104 0.077,-0.047 0.116,-0.125 0.116,-0.231l0 -0.021c0,-0.259 -0.073,-0.46 -0.22,-0.602 -0.144,-0.143 -0.359,-0.214 -0.646,-0.214 -0.299,0 -0.535,0.066 -0.706,0.199 -0.17,0.13 -0.288,0.276 -0.353,0.436l-0.834 -0.19c0.099,-0.277 0.243,-0.5 0.433,-0.671 0.192,-0.171 0.412,-0.296 0.662,-0.373 0.249,-0.08 0.511,-0.118 0.785,-0.118 0.183,0 0.376,0.021 0.579,0.065 0.206,0.041 0.397,0.118 0.576,0.231 0.179,0.113 0.327,0.274 0.441,0.483 0.115,0.208 0.173,0.478 0.173,0.811l0 3.025 -0.867 0 0 -0.623 -0.035 0c-0.057,0.115 -0.144,0.227 -0.258,0.338 -0.115,0.111 -0.262,0.203 -0.442,0.276 -0.18,0.074 -0.396,0.11 -0.647,0.11zm0.193 -0.712c0.245,0 0.455,-0.048 0.629,-0.146 0.175,-0.096 0.309,-0.223 0.401,-0.379 0.092,-0.158 0.139,-0.327 0.139,-0.507l0 -0.588c-0.032,0.032 -0.093,0.061 -0.184,0.089 -0.089,0.026 -0.192,0.049 -0.306,0.068 -0.115,0.018 -0.226,0.035 -0.335,0.051 -0.109,0.014 -0.2,0.026 -0.273,0.036 -0.172,0.021 -0.329,0.058 -0.472,0.11 -0.14,0.051 -0.253,0.125 -0.338,0.222 -0.083,0.094 -0.124,0.222 -0.124,0.379 0,0.22 0.081,0.386 0.243,0.499 0.162,0.11 0.369,0.166 0.62,0.166z"/>
    <path class="fil21" d="M267.365 166.348l0 0.712 -2.489 0 0 -0.712 2.489 0zm-1.822 -1.091l0.888 0 0 4.31c0,0.172 0.025,0.302 0.077,0.389 0.051,0.085 0.118,0.143 0.199,0.175 0.083,0.03 0.173,0.044 0.269,0.044 0.072,0 0.134,-0.005 0.188,-0.014 0.053,-0.011 0.094,-0.018 0.124,-0.024l0.16 0.732c-0.051,0.02 -0.125,0.04 -0.219,0.06 -0.095,0.022 -0.214,0.033 -0.356,0.035 -0.233,0.004 -0.451,-0.037 -0.653,-0.124 -0.202,-0.087 -0.365,-0.222 -0.489,-0.403 -0.125,-0.183 -0.188,-0.411 -0.188,-0.686l0 -4.494z"/>
    <path class="fil21" d="M268.347 170.905l0 -4.557 0.886 0 0 4.557 -0.886 0zm0.447 -5.26c-0.154,0 -0.286,-0.051 -0.398,-0.154 -0.108,-0.105 -0.163,-0.229 -0.163,-0.374 0,-0.146 0.055,-0.271 0.163,-0.373 0.112,-0.105 0.244,-0.158 0.398,-0.158 0.155,0 0.286,0.053 0.395,0.158 0.11,0.102 0.166,0.227 0.166,0.373 0,0.145 -0.056,0.269 -0.166,0.374 -0.109,0.103 -0.24,0.154 -0.395,0.154z"/>
    <path class="fil21" d="M272.346 170.997c-0.428,0 -0.8,-0.098 -1.118,-0.294 -0.319,-0.196 -0.566,-0.47 -0.742,-0.821 -0.176,-0.352 -0.264,-0.764 -0.264,-1.234 0,-0.473 0.088,-0.887 0.264,-1.241 0.176,-0.353 0.423,-0.629 0.742,-0.824 0.318,-0.196 0.69,-0.293 1.118,-0.293 0.427,0 0.799,0.097 1.119,0.293 0.318,0.195 0.565,0.471 0.741,0.824 0.175,0.354 0.264,0.768 0.264,1.241 0,0.47 -0.089,0.882 -0.264,1.234 -0.176,0.351 -0.423,0.625 -0.741,0.821 -0.32,0.196 -0.692,0.294 -1.119,0.294zm0.002 -0.744c0.277,0 0.507,-0.074 0.689,-0.22 0.182,-0.147 0.316,-0.341 0.403,-0.585 0.089,-0.243 0.134,-0.511 0.134,-0.803 0,-0.291 -0.045,-0.558 -0.134,-0.801 -0.087,-0.246 -0.221,-0.442 -0.403,-0.591 -0.182,-0.148 -0.412,-0.222 -0.689,-0.222 -0.278,0 -0.509,0.074 -0.693,0.222 -0.182,0.149 -0.318,0.345 -0.407,0.591 -0.087,0.243 -0.13,0.51 -0.13,0.801 0,0.292 0.043,0.56 0.13,0.803 0.089,0.244 0.225,0.438 0.407,0.585 0.184,0.146 0.415,0.22 0.693,0.22z"/>
    <path class="fil21" d="M276.347 168.2l0 2.705 -0.887 0 0 -4.557 0.851 0 0 0.742 0.057 0c0.105,-0.241 0.268,-0.435 0.492,-0.581 0.226,-0.147 0.509,-0.219 0.851,-0.219 0.311,0 0.582,0.065 0.816,0.195 0.234,0.128 0.414,0.32 0.543,0.575 0.128,0.256 0.193,0.571 0.193,0.947l0 2.898 -0.887 0 0 -2.792c0,-0.33 -0.086,-0.588 -0.258,-0.773 -0.172,-0.188 -0.409,-0.282 -0.709,-0.282 -0.206,0 -0.389,0.044 -0.549,0.133 -0.158,0.089 -0.284,0.22 -0.376,0.391 -0.092,0.17 -0.137,0.376 -0.137,0.618z"/>
    <g clipPath="url(#clip0_32_80)">
     <path class="fil22" d="M199.107 167.758c-0.686,0 -1.273,0.588 -1.273,1.273l0 3.171c0,0.686 0.587,1.273 1.273,1.273 0.685,0 1.272,-0.587 1.272,-1.273l0 -3.171c0,-0.725 -0.547,-1.273 -1.272,-1.273z"/>
     <path class="fil22" d="M194.642 169.031c0,0.685 0.588,1.272 1.274,1.272 0.685,0 1.272,-0.587 1.272,-1.272l0 -1.273 -1.253 0c-0.705,0 -1.293,0.548 -1.293,1.273z"/>
     <path class="fil23" d="M199.107 161.356c-0.686,0 -1.273,0.587 -1.273,1.272 0,0.686 0.587,1.273 1.273,1.273l1.272 0c0,-0.724 0,-0.548 0,-1.273 0,-0.685 -0.547,-1.272 -1.272,-1.272z"/>
     <path class="fil23" d="M195.916 167.092l3.191 0c0.685,0 1.272,-0.587 1.272,-1.272 0,-0.685 -0.587,-1.273 -1.272,-1.273l-3.191 0c-0.686,0 -1.274,0.588 -1.274,1.273 0,0.685 0.549,1.272 1.274,1.272z"/>
     <path class="fil24" d="M205.489 164.547c-0.685,0 -1.272,0.588 -1.272,1.273l0 1.272 1.272 0c0.685,0 1.273,-0.587 1.273,-1.272 0,-0.685 -0.568,-1.273 -1.273,-1.273z"/>
     <path class="fil24" d="M201.045 162.628l0 3.192c0,0.685 0.587,1.272 1.273,1.272 0.685,0 1.272,-0.587 1.272,-1.272l0 -3.192c0,-0.685 -0.587,-1.272 -1.272,-1.272 -0.725,0 -1.273,0.587 -1.273,1.272z"/>
     <path class="fil25" d="M203.59 172.222c0,-0.686 -0.587,-1.273 -1.272,-1.273l-1.273 0 0 1.273c0,0.685 0.587,1.273 1.273,1.273 0.685,0 1.272,-0.588 1.272,-1.273z"/>
     <path class="fil25" d="M205.509 167.758l-3.191 0c-0.686,0 -1.273,0.588 -1.273,1.273 0,0.685 0.587,1.272 1.273,1.272l3.191 0c0.685,0 1.273,-0.587 1.273,-1.272 0,-0.725 -0.588,-1.273 -1.273,-1.273z"/>
    </g>
    <g filter="url(#filter2_d_32_80)">
     <path class="fil0" d="M296.778 220.331l81.447 0c6.535,0 11.834,5.299 11.834,11.834l0.001 0c-0.001,6.535 -5.3,11.834 -11.835,11.834l-81.447 0c-6.535,0 -11.834,-5.299 -11.834,-11.834l0 0c0,-6.535 5.299,-11.834 11.834,-11.834z"/>
    </g>
    <path class="fil21" d="M317.569 230.795c-0.058,-0.18 -0.135,-0.341 -0.232,-0.483 -0.095,-0.145 -0.209,-0.267 -0.341,-0.368 -0.133,-0.103 -0.284,-0.181 -0.454,-0.235 -0.168,-0.053 -0.353,-0.08 -0.555,-0.08 -0.342,0 -0.65,0.088 -0.926,0.264 -0.275,0.176 -0.492,0.434 -0.652,0.775 -0.158,0.338 -0.237,0.752 -0.237,1.242 0,0.493 0.08,0.909 0.24,1.25 0.16,0.339 0.38,0.598 0.658,0.774 0.28,0.175 0.597,0.263 0.952,0.263 0.331,0 0.619,-0.066 0.864,-0.201 0.247,-0.135 0.438,-0.324 0.572,-0.57 0.137,-0.247 0.205,-0.537 0.205,-0.872l0.237 0.044 -1.738 0 0 -0.755 2.388 0 0 0.69c0,0.511 -0.108,0.954 -0.326,1.33 -0.216,0.373 -0.514,0.662 -0.896,0.866 -0.379,0.203 -0.815,0.305 -1.306,0.305 -0.549,0 -1.032,-0.126 -1.447,-0.38 -0.413,-0.252 -0.736,-0.612 -0.967,-1.077 -0.231,-0.466 -0.347,-1.02 -0.347,-1.66 0,-0.485 0.067,-0.92 0.202,-1.306 0.134,-0.385 0.324,-0.713 0.566,-0.982 0.246,-0.271 0.533,-0.477 0.864,-0.62 0.332,-0.144 0.695,-0.216 1.088,-0.216 0.328,0 0.634,0.048 0.917,0.145 0.284,0.097 0.538,0.234 0.759,0.413 0.224,0.177 0.409,0.389 0.555,0.634 0.147,0.244 0.246,0.514 0.297,0.81l-0.94 0z"/>
    <path class="fil21" d="M319.642 234.951l0 -4.556 0.852 0 0 0.741 0.057 0c0.094,-0.251 0.25,-0.446 0.465,-0.587 0.216,-0.142 0.473,-0.213 0.775,-0.213 0.304,0 0.559,0.071 0.764,0.213 0.208,0.142 0.362,0.338 0.461,0.587l0.047 0c0.109,-0.243 0.282,-0.437 0.519,-0.581 0.238,-0.147 0.52,-0.219 0.849,-0.219 0.413,0 0.75,0.128 1.011,0.388 0.263,0.259 0.395,0.649 0.395,1.171l0 3.056 -0.888 0 0 -2.973c0,-0.308 -0.083,-0.531 -0.251,-0.67 -0.168,-0.138 -0.369,-0.208 -0.603,-0.208 -0.288,0 -0.513,0.09 -0.673,0.268 -0.16,0.175 -0.24,0.402 -0.24,0.679l0 2.904 -0.884 0 0 -3.029c0,-0.247 -0.077,-0.446 -0.231,-0.596 -0.155,-0.15 -0.356,-0.226 -0.603,-0.226 -0.168,0 -0.324,0.045 -0.465,0.134 -0.141,0.087 -0.255,0.209 -0.342,0.365 -0.085,0.157 -0.128,0.338 -0.128,0.542l0 2.81 -0.887 0z"/>
    <path class="fil21" d="M328.351 235.052c-0.289,0 -0.549,-0.054 -0.782,-0.16 -0.234,-0.109 -0.419,-0.266 -0.555,-0.472 -0.135,-0.206 -0.202,-0.458 -0.202,-0.756 0,-0.258 0.049,-0.469 0.148,-0.636 0.099,-0.166 0.233,-0.297 0.401,-0.394 0.168,-0.097 0.356,-0.17 0.564,-0.219 0.207,-0.05 0.419,-0.087 0.634,-0.113 0.273,-0.031 0.495,-0.058 0.665,-0.077 0.17,-0.022 0.293,-0.057 0.371,-0.104 0.077,-0.047 0.115,-0.125 0.115,-0.231l0 -0.022c0,-0.258 -0.073,-0.459 -0.22,-0.601 -0.144,-0.143 -0.36,-0.214 -0.647,-0.214 -0.298,0 -0.533,0.067 -0.705,0.199 -0.17,0.13 -0.288,0.276 -0.353,0.436l-0.834 -0.19c0.099,-0.277 0.244,-0.501 0.434,-0.67 0.191,-0.172 0.412,-0.297 0.661,-0.374 0.249,-0.079 0.511,-0.118 0.786,-0.118 0.182,0 0.374,0.021 0.578,0.065 0.206,0.041 0.398,0.119 0.576,0.231 0.18,0.112 0.328,0.273 0.442,0.483 0.115,0.208 0.172,0.478 0.172,0.811l0 3.025 -0.866 0 0 -0.623 -0.036 0c-0.057,0.115 -0.143,0.227 -0.258,0.339 -0.115,0.11 -0.262,0.202 -0.442,0.275 -0.18,0.074 -0.395,0.11 -0.647,0.11zm0.194 -0.712c0.244,0 0.454,-0.048 0.628,-0.145 0.176,-0.097 0.31,-0.224 0.4,-0.38 0.094,-0.158 0.14,-0.328 0.14,-0.507l0 -0.588c-0.032,0.032 -0.093,0.062 -0.184,0.089 -0.089,0.026 -0.191,0.049 -0.305,0.069 -0.115,0.017 -0.227,0.034 -0.336,0.05 -0.108,0.014 -0.199,0.026 -0.273,0.035 -0.172,0.022 -0.329,0.059 -0.471,0.11 -0.141,0.051 -0.253,0.126 -0.338,0.223 -0.083,0.095 -0.125,0.221 -0.125,0.379 0,0.22 0.081,0.386 0.244,0.499 0.161,0.11 0.368,0.166 0.62,0.166z"/>
    <path class="fil21" d="M331.781 234.951l0 -4.556 0.888 0 0 4.556 -0.888 0zm0.449 -5.26c-0.155,0 -0.287,-0.051 -0.398,-0.154 -0.109,-0.105 -0.163,-0.229 -0.163,-0.374 0,-0.146 0.054,-0.271 0.163,-0.373 0.111,-0.105 0.243,-0.158 0.398,-0.158 0.154,0 0.285,0.053 0.394,0.158 0.11,0.102 0.166,0.227 0.166,0.373 0,0.145 -0.056,0.269 -0.166,0.374 -0.109,0.103 -0.24,0.154 -0.394,0.154z"/>
    <polygon class="fil21" points="334.749,228.876 334.749,234.951 333.862,234.951 333.862,228.876 "/>
    <polygon class="fil21" points="339.141,228.876 339.141,234.951 338.224,234.951 338.224,228.876 "/>
    <path class="fil21" d="M341.291 232.246l0 2.705 -0.887 0 0 -4.556 0.852 0 0 0.741 0.056 0c0.105,-0.241 0.269,-0.435 0.493,-0.581 0.225,-0.147 0.509,-0.219 0.851,-0.219 0.31,0 0.582,0.065 0.815,0.195 0.234,0.128 0.415,0.32 0.544,0.576 0.128,0.255 0.192,0.57 0.192,0.946l0 2.898 -0.887 0 0 -2.792c0,-0.329 -0.086,-0.587 -0.258,-0.773 -0.172,-0.189 -0.408,-0.282 -0.708,-0.282 -0.206,0 -0.39,0.044 -0.549,0.133 -0.159,0.089 -0.284,0.219 -0.378,0.391 -0.09,0.171 -0.136,0.376 -0.136,0.618z"/>
    <path class="fil21" d="M347.524 230.395l0 0.712 -2.489 0 0 -0.712 2.489 0zm-1.822 -1.092l0.887 0 0 4.31c0,0.172 0.026,0.302 0.077,0.389 0.052,0.085 0.118,0.143 0.199,0.175 0.083,0.03 0.173,0.044 0.27,0.044 0.071,0 0.134,-0.004 0.187,-0.014 0.054,-0.01 0.095,-0.018 0.124,-0.024l0.161 0.732c-0.052,0.02 -0.125,0.04 -0.22,0.06 -0.095,0.021 -0.213,0.033 -0.356,0.035 -0.233,0.004 -0.451,-0.037 -0.652,-0.124 -0.202,-0.087 -0.365,-0.222 -0.49,-0.403 -0.125,-0.183 -0.187,-0.411 -0.187,-0.686l0 -4.494z"/>
    <path class="fil21" d="M350.42 235.043c-0.449,0 -0.836,-0.096 -1.16,-0.288 -0.322,-0.193 -0.572,-0.465 -0.747,-0.816 -0.175,-0.351 -0.262,-0.764 -0.262,-1.236 0,-0.468 0.087,-0.878 0.262,-1.234 0.175,-0.356 0.421,-0.635 0.735,-0.834 0.316,-0.2 0.686,-0.299 1.11,-0.299 0.257,0 0.506,0.041 0.747,0.127 0.241,0.085 0.458,0.218 0.65,0.4 0.191,0.182 0.343,0.418 0.453,0.709 0.112,0.289 0.166,0.64 0.166,1.053l0 0.315 -3.621 0 0 -0.665 2.752 0c0,-0.233 -0.047,-0.44 -0.142,-0.62 -0.095,-0.181 -0.228,-0.325 -0.4,-0.43 -0.17,-0.105 -0.37,-0.157 -0.6,-0.157 -0.249,0 -0.466,0.061 -0.652,0.184 -0.185,0.121 -0.327,0.279 -0.427,0.475 -0.099,0.194 -0.149,0.404 -0.149,0.631l0 0.52c0,0.304 0.054,0.564 0.16,0.777 0.109,0.213 0.261,0.376 0.454,0.49 0.195,0.11 0.421,0.166 0.68,0.166 0.168,0 0.321,-0.025 0.46,-0.072 0.138,-0.049 0.258,-0.123 0.358,-0.219 0.101,-0.097 0.178,-0.217 0.232,-0.359l0.839 0.151c-0.067,0.247 -0.188,0.463 -0.361,0.649 -0.173,0.184 -0.389,0.328 -0.651,0.431 -0.258,0.1 -0.554,0.151 -0.886,0.151z"/>
    <path class="fil21" d="M355.269 236.755c-0.362,0 -0.673,-0.048 -0.934,-0.143 -0.259,-0.095 -0.471,-0.22 -0.635,-0.376 -0.164,-0.156 -0.287,-0.327 -0.368,-0.514l0.762 -0.314c0.054,0.087 0.125,0.179 0.214,0.276 0.091,0.098 0.214,0.183 0.368,0.252 0.156,0.069 0.356,0.104 0.602,0.104 0.336,0 0.614,-0.082 0.833,-0.247 0.22,-0.161 0.33,-0.421 0.33,-0.777l0 -0.896 -0.056 0c-0.054,0.097 -0.131,0.205 -0.232,0.323 -0.098,0.119 -0.235,0.222 -0.409,0.309 -0.174,0.087 -0.401,0.131 -0.679,0.131 -0.36,0 -0.685,-0.084 -0.973,-0.252 -0.287,-0.17 -0.515,-0.421 -0.683,-0.751 -0.166,-0.332 -0.249,-0.74 -0.249,-1.225 0,-0.485 0.082,-0.899 0.246,-1.246 0.166,-0.346 0.394,-0.611 0.682,-0.795 0.289,-0.186 0.617,-0.278 0.982,-0.278 0.284,0 0.512,0.047 0.685,0.142 0.175,0.093 0.31,0.201 0.407,0.326 0.099,0.124 0.175,0.234 0.229,0.329l0.065 0 0 -0.738 0.869 0 0 4.657c0,0.392 -0.091,0.713 -0.273,0.964 -0.182,0.251 -0.428,0.437 -0.739,0.558 -0.308,0.121 -0.656,0.181 -1.044,0.181zm-0.009 -2.608c0.256,0 0.471,-0.059 0.647,-0.178 0.178,-0.121 0.312,-0.292 0.403,-0.516 0.094,-0.226 0.14,-0.495 0.14,-0.81 0,-0.307 -0.046,-0.576 -0.137,-0.81 -0.09,-0.233 -0.224,-0.415 -0.4,-0.545 -0.176,-0.133 -0.394,-0.199 -0.653,-0.199 -0.267,0 -0.489,0.069 -0.667,0.208 -0.179,0.136 -0.313,0.322 -0.404,0.557 -0.089,0.235 -0.133,0.498 -0.133,0.789 0,0.299 0.045,0.561 0.136,0.786 0.091,0.226 0.226,0.402 0.404,0.528 0.18,0.127 0.401,0.19 0.664,0.19z"/>
    <path class="fil21" d="M358.514 234.951l0 -4.556 0.858 0 0 0.723 0.047 0c0.083,-0.245 0.23,-0.437 0.439,-0.578 0.212,-0.142 0.451,-0.214 0.718,-0.214 0.056,0 0.121,0.002 0.196,0.006 0.077,0.004 0.138,0.009 0.181,0.015l0 0.849c-0.036,-0.01 -0.099,-0.021 -0.189,-0.033 -0.092,-0.014 -0.183,-0.021 -0.273,-0.021 -0.21,0 -0.397,0.045 -0.562,0.134 -0.162,0.086 -0.29,0.208 -0.385,0.365 -0.095,0.153 -0.143,0.33 -0.143,0.527l0 2.783 -0.887 0z"/>
    <path class="fil21" d="M363.006 235.052c-0.289,0 -0.55,-0.054 -0.784,-0.16 -0.233,-0.109 -0.418,-0.266 -0.554,-0.472 -0.135,-0.206 -0.202,-0.458 -0.202,-0.756 0,-0.258 0.05,-0.469 0.149,-0.636 0.098,-0.166 0.232,-0.297 0.4,-0.394 0.168,-0.097 0.356,-0.17 0.564,-0.219 0.207,-0.05 0.418,-0.087 0.635,-0.113 0.272,-0.031 0.494,-0.058 0.664,-0.077 0.17,-0.022 0.294,-0.057 0.37,-0.104 0.077,-0.047 0.117,-0.125 0.117,-0.231l0 -0.022c0,-0.258 -0.074,-0.459 -0.22,-0.601 -0.145,-0.143 -0.36,-0.214 -0.647,-0.214 -0.299,0 -0.534,0.067 -0.706,0.199 -0.17,0.13 -0.288,0.276 -0.353,0.436l-0.833 -0.19c0.099,-0.277 0.243,-0.501 0.432,-0.67 0.193,-0.172 0.413,-0.297 0.662,-0.374 0.249,-0.079 0.511,-0.118 0.786,-0.118 0.182,0 0.375,0.021 0.579,0.065 0.206,0.041 0.397,0.119 0.575,0.231 0.18,0.112 0.327,0.273 0.442,0.483 0.115,0.208 0.172,0.478 0.172,0.811l0 3.025 -0.866 0 0 -0.623 -0.035 0c-0.058,0.115 -0.144,0.227 -0.259,0.339 -0.114,0.11 -0.262,0.202 -0.441,0.275 -0.181,0.074 -0.396,0.11 -0.647,0.11zm0.192 -0.712c0.246,0 0.455,-0.048 0.629,-0.145 0.176,-0.097 0.31,-0.224 0.401,-0.38 0.093,-0.158 0.139,-0.328 0.139,-0.507l0 -0.588c-0.031,0.032 -0.092,0.062 -0.184,0.089 -0.089,0.026 -0.19,0.049 -0.305,0.069 -0.115,0.017 -0.227,0.034 -0.335,0.05 -0.109,0.014 -0.2,0.026 -0.273,0.035 -0.172,0.022 -0.329,0.059 -0.472,0.11 -0.14,0.051 -0.253,0.126 -0.338,0.223 -0.083,0.095 -0.125,0.221 -0.125,0.379 0,0.22 0.082,0.386 0.244,0.499 0.162,0.11 0.368,0.166 0.619,0.166z"/>
    <path class="fil21" d="M368.563 230.395l0 0.712 -2.489 0 0 -0.712 2.489 0zm-1.821 -1.092l0.886 0 0 4.31c0,0.172 0.026,0.302 0.077,0.389 0.052,0.085 0.118,0.143 0.199,0.175 0.083,0.03 0.173,0.044 0.27,0.044 0.071,0 0.133,-0.004 0.187,-0.014 0.053,-0.01 0.095,-0.018 0.124,-0.024l0.161 0.732c-0.052,0.02 -0.125,0.04 -0.22,0.06 -0.095,0.021 -0.214,0.033 -0.356,0.035 -0.233,0.004 -0.45,-0.037 -0.652,-0.124 -0.202,-0.087 -0.365,-0.222 -0.49,-0.403 -0.125,-0.183 -0.186,-0.411 -0.186,-0.686l0 -4.494z"/>
    <path class="fil21" d="M369.544 234.951l0 -4.556 0.887 0 0 4.556 -0.887 0zm0.448 -5.26c-0.155,0 -0.287,-0.051 -0.398,-0.154 -0.108,-0.105 -0.163,-0.229 -0.163,-0.374 0,-0.146 0.055,-0.271 0.163,-0.373 0.111,-0.105 0.243,-0.158 0.398,-0.158 0.154,0 0.286,0.053 0.394,0.158 0.111,0.102 0.166,0.227 0.166,0.373 0,0.145 -0.055,0.269 -0.166,0.374 -0.108,0.103 -0.24,0.154 -0.394,0.154z"/>
    <path class="fil21" d="M373.543 235.043c-0.427,0 -0.8,-0.098 -1.118,-0.294 -0.318,-0.196 -0.566,-0.469 -0.741,-0.821 -0.177,-0.352 -0.264,-0.764 -0.264,-1.234 0,-0.473 0.087,-0.886 0.264,-1.24 0.175,-0.354 0.423,-0.629 0.741,-0.825 0.318,-0.196 0.691,-0.293 1.118,-0.293 0.427,0 0.801,0.097 1.119,0.293 0.318,0.196 0.565,0.471 0.741,0.825 0.177,0.354 0.264,0.767 0.264,1.24 0,0.47 -0.087,0.882 -0.264,1.234 -0.176,0.352 -0.423,0.625 -0.741,0.821 -0.318,0.196 -0.692,0.294 -1.119,0.294zm0.003 -0.744c0.277,0 0.507,-0.074 0.688,-0.22 0.182,-0.147 0.317,-0.341 0.404,-0.584 0.089,-0.244 0.134,-0.512 0.134,-0.804 0,-0.291 -0.045,-0.558 -0.134,-0.801 -0.087,-0.245 -0.222,-0.442 -0.404,-0.591 -0.181,-0.148 -0.411,-0.222 -0.688,-0.222 -0.279,0 -0.51,0.074 -0.694,0.222 -0.182,0.149 -0.317,0.346 -0.406,0.591 -0.088,0.243 -0.131,0.51 -0.131,0.801 0,0.292 0.043,0.56 0.131,0.804 0.089,0.243 0.224,0.437 0.406,0.584 0.184,0.146 0.415,0.22 0.694,0.22z"/>
    <path class="fil21" d="M377.544 232.246l0 2.705 -0.887 0 0 -4.556 0.852 0 0 0.741 0.056 0c0.105,-0.241 0.269,-0.435 0.492,-0.581 0.226,-0.147 0.51,-0.219 0.852,-0.219 0.31,0 0.582,0.065 0.816,0.195 0.233,0.128 0.414,0.32 0.542,0.576 0.13,0.255 0.193,0.57 0.193,0.946l0 2.898 -0.887 0 0 -2.792c0,-0.329 -0.085,-0.587 -0.258,-0.773 -0.172,-0.189 -0.408,-0.282 -0.709,-0.282 -0.205,0 -0.388,0.044 -0.549,0.133 -0.158,0.089 -0.283,0.219 -0.376,0.391 -0.091,0.171 -0.137,0.376 -0.137,0.618z"/>
    <g clipPath="url(#clip1_32_80)">
     <polygon class="fil26" points="296.082,227.99 304.436,227.99 304.436,236.343 296.082,236.343 "/>
     <polygon class="fil27" points="300.259,233.045 304.436,236.343 304.436,229.832 "/>
     <path class="fil28" d="M304.784 227.99l-0.348 0 -4.177 3.298 -4.177 -3.298 -0.348 0c-0.576,0 -1.044,0.468 -1.044,1.043l0 6.266c0,0.576 0.468,1.044 1.044,1.044l0.348 0 0 -6.511 4.177 3.213 4.177 -3.214 0 6.512 0.348 0c0.577,0 1.044,-0.468 1.044,-1.044l0 -6.266c0,-0.575 -0.467,-1.043 -1.044,-1.043z"/>
    </g>
    <path class="fil29" d="M196.536 195.271l84.231 0c1.922,-0.001 3.481,1.558 3.481,3.48l0 0c0,1.922 -1.559,3.481 -3.481,3.481l-84.231 0c-1.922,0 -3.481,-1.559 -3.481,-3.481l0 0c0,-1.922 1.559,-3.481 3.481,-3.481z"/>
    <path class="fil30" d="M312.094 151.414l75.182 0c1.537,0 2.784,1.247 2.784,2.785l0 0c0,1.537 -1.247,2.784 -2.784,2.784l-75.182 0.001c-1.538,-0.001 -2.785,-1.248 -2.785,-2.785l0 0c0,-1.538 1.247,-2.785 2.785,-2.785z"/>
    <path class="fil31" d="M401.197 188.309l-75.182 0c-1.538,0 -2.785,-1.247 -2.785,-2.784l0 0c0,-1.538 1.247,-2.785 2.785,-2.785l75.182 0c1.538,0 2.785,1.247 2.785,2.785l0 0c0,1.537 -1.247,2.784 -2.785,2.784z"/>
   </g>
   <rect class="fil32 str2" x="14.699" y="30.038" width="417.971" height="239.023" rx="6.443" ry="6.383"/>
   <g>
    <path class="fil33" d="M166.282 55.268c48.876,-2.767 100.119,11.644 92.587,32.536 -7.533,20.891 40.271,-7.42 59.347,0.112 13.581,5.362 8.153,21.687 14.722,28.264 15.065,15.082 30.473,-3.91 49.646,7.486 19.174,11.395 -20.081,117.749 -40.111,118.343l-228.461 -1.355 -16.395 -1.437c0,0 -45.351,-24.193 -12.91,-46.51 21.936,-15.09 6.153,-26.048 3.767,-32.956 -2.739,-7.932 -9.13,-21.785 18.717,-31.951 27.848,-10.166 20.658,-32.287 19.973,-36.867 -0.685,-4.581 -9.756,-32.899 39.118,-35.665z"/>
    <path class="fil34" d="M239.08 250.124c95.113,0 172.217,-2.754 172.217,-6.151 0,-3.396 -77.104,-6.15 -172.217,-6.15 -95.113,0 -172.217,2.754 -172.217,6.15 0,3.397 77.104,6.151 172.217,6.151z"/>
    <path class="fil35" d="M84.907 202.928c0,0 9.517,-17.592 34.435,-34.753 17.591,-12.118 26.132,-43.389 26.132,-43.389 0,0 -35.081,4.043 -48.86,26.554 -13.78,22.509 -11.707,51.588 -11.707,51.588z"/>
    <path class="fil36" d="M84.821 203.386c0.238,-0.017 0.438,-0.191 0.475,-0.42 3.629,-19.034 13.485,-33.352 21.124,-42.021 8.28,-9.38 15.773,-14.315 15.85,-14.361 0.241,-0.163 0.311,-0.487 0.147,-0.728 -0.097,-0.147 -0.261,-0.236 -0.437,-0.236 -0.104,0 -0.205,0.031 -0.291,0.088 -0.077,0.045 -7.697,5.057 -16.062,14.549 -7.727,8.754 -17.703,23.241 -21.369,42.504 -0.007,0.034 -0.011,0.069 -0.011,0.103 0,0.25 0.18,0.463 0.426,0.506 0.068,0.008 0.108,0.018 0.148,0.016l0 0z"/>
    <path class="fil35" d="M89.497 202.215c0,0 2.619,-6.343 16.501,-5.791 13.88,0.54 22.073,7.654 45.579,-7.863 0,0 -19.454,-13.998 -39.119,-9.511 -19.679,4.475 -20.668,12.231 -22.961,23.165z"/>
    <path class="fil36" d="M89.468 202.736c0.172,-0.013 0.337,-0.117 0.432,-0.284 0.059,-0.097 5.521,-10.22 15.302,-12.725 17.092,-4.384 29.261,0.307 29.384,0.365 0.06,0.022 0.124,0.033 0.188,0.033 0.219,0 0.415,-0.133 0.496,-0.335 0.023,-0.061 0.034,-0.125 0.034,-0.19 0,-0.214 -0.126,-0.408 -0.322,-0.494 -0.123,-0.045 -12.608,-4.872 -30.039,-0.398 -10.239,2.618 -15.734,12.822 -15.969,13.251 -0.141,0.263 -0.039,0.575 0.224,0.716 0.07,0.048 0.178,0.067 0.27,0.06l0 0.001z"/>
    <path class="fil35" d="M83.372 201.162c0,0 0.724,-6.819 -11.734,-12.964 -12.459,-6.146 -23.049,-3.809 -36.296,-28.66 0,0 23.772,-3.011 38.924,10.322 15.15,13.307 12.305,20.597 9.107,31.302l-0.001 0z"/>
    <path class="fil36" d="M83.478 201.714c0.264,-0.02 0.488,-0.248 0.482,-0.513 0.005,-0.492 0.03,-12.076 -7.703,-19.263 -13.186,-12.251 -26.459,-13.964 -26.58,-13.982 -0.019,-0.002 -0.039,-0.003 -0.058,-0.003 -0.264,0 -0.486,0.196 -0.521,0.457 -0.002,0.019 -0.003,0.039 -0.003,0.059 0,0.263 0.196,0.486 0.457,0.52 0.134,0.017 13.072,1.701 26.002,13.716 7.405,6.879 7.373,18.37 7.369,18.49 0,0.003 0,0.007 0,0.011 0,0.287 0.23,0.52 0.517,0.524 -0.001,-0.014 0.012,-0.015 0.038,-0.017l0 0.001z"/>
    <path class="fil36" d="M89.31 248.094c18.091,0 29.604,-2.878 27.758,-15.624 -1.172,-8.092 -7.48,-16.009 -11.932,-20.724 -0.569,-0.592 -1.169,-1.209 -1.752,-1.783 -1.653,-1.627 -2.764,-2.572 -2.764,-2.572l-0.053 -0.297 -0.315 -1.785 -0.367 -2.056 -0.831 -4.707 -0.289 -1.644 -9.457 -0.412 -9.868 0.412 -0.227 1.644 -0.35 2.59 -0.578 4.182 -0.244 1.784 -0.036 0.298c0,0 -1.11,0.936 -2.764,2.572 -0.584,0.571 -1.189,1.187 -1.75,1.78 -4.453,4.707 -10.76,12.633 -11.933,20.725 -1.855,12.738 9.658,15.615 27.749,15.615l0.003 0.002z"/>
    <path class="fil36" d="M75.765 199.884l27.354 0c1.465,0 2.665,-1.2 2.665,-2.665l0 -1.666c0,-1.465 -1.2,-2.664 -2.665,-2.664l-27.354 0c-1.465,0 -2.664,1.199 -2.664,2.664l0 1.667c0,1.464 1.199,2.664 2.664,2.664l0 0z"/>
    <path class="fil5 str3" d="M71.476 134.373c0,2.832 -2.411,5.126 -5.388,5.126 -2.978,0 -5.376,-2.305 -5.376,-5.126 0,-2.833 2.41,-5.125 5.388,-5.125 2.977,0 5.376,2.292 5.376,5.125z"/>
    <path class="fil37" d="M104.446 103.085c-7.777,6.795 -21.153,4.218 -21.153,4.218 0,0 -0.76,-13.593 7.022,-20.383 7.777,-6.795 21.147,-4.223 21.147,-4.223 0,0 0.76,13.593 -7.016,20.389l0 -0.001z"/>
    <circle class="fil38" transform="matrix(-2.26106E-001 0.843839 -8.43839E-001 -2.26106E-001 136.797 62.8785)" r="3.199"/>
    <circle class="fil38" transform="matrix(-2.26106E-001 0.843839 -8.43839E-001 -2.26106E-001 146.949 98.2547)" r="3.199"/>
    <circle class="fil38" transform="matrix(-2.26106E-001 0.843839 -8.43839E-001 -2.26106E-001 202.51 72.0766)" r="3.199"/>
    <circle class="fil38" transform="matrix(-2.26106E-001 0.843839 -8.43839E-001 -2.26106E-001 302.308 133.409)" r="2.102"/>
    <circle class="fil38" transform="matrix(-2.26106E-001 0.843839 -8.43839E-001 -2.26106E-001 304.009 178.202)" r="3.199"/>
    <circle class="fil38" transform="matrix(-2.26106E-001 0.843839 -8.43839E-001 -2.26106E-001 326.049 161.801)" r="3.199"/>
    <path class="fil38" d="M284.185 101.808l0 9.963 -8.995 10.72 37.781 0c11.42,0 20.683,-9.263 20.683,-20.683 0,-11.419 -9.263,-20.682 -20.683,-20.682l-8.104 0c-11.426,0 -20.682,9.263 -20.682,20.682l0 0z"/>
    <path class="fil0" d="M300.123 101.773c0,2.031 -1.647,3.677 -3.677,3.677 -2.031,-0.001 -3.676,-1.646 -3.677,-3.676 0.001,-2.031 1.646,-3.677 3.677,-3.678 2.03,0.001 3.677,1.647 3.677,3.678l0 -0.001zm12.494 0c0,2.03 -1.646,3.677 -3.676,3.677 -2.03,-0.001 -3.677,-1.647 -3.677,-3.677 0,-2.03 1.647,-3.677 3.677,-3.677 2.03,0.001 3.676,1.647 3.676,3.677l0 0zm12.495 0c0,2.03 -1.647,3.676 -3.677,3.677 -2.03,-0.001 -3.676,-1.647 -3.677,-3.677 0.001,-2.031 1.647,-3.676 3.677,-3.677 2.03,0 3.677,1.647 3.677,3.677l0 0z"/>
    <polygon class="fil5 str4" points="315.275,211.615 308.063,214.434 308.521,206.704 315.73,203.887 315.275,211.615 "/>
    <path class="fil39" d="M156.559 70.976l0 -19.63c0,-2.033 1.644,-3.679 3.672,-3.679l22.037 0c2.029,0 3.672,1.646 3.672,3.679l0 19.63c0.001,0 0.001,0.001 0.001,0.001 0,1.335 -0.724,2.566 -1.89,3.215l-11.018 6.134c-0.545,0.304 -1.16,0.463 -1.784,0.463 -0.624,0 -1.239,-0.159 -1.784,-0.463l-11.018 -6.133c-1.165,-0.651 -1.888,-1.882 -1.888,-3.217l0 0z"/>
    <path class="fil40 str5" d="M165.143 63.898l12.214 0m-12.214 -5.723l12.214 0m-12.214 11.28l12.214 0"/>
    <path class="fil38" d="M323.159 138.437l9.333 -9.333c0.34,-0.34 0.891,-0.34 1.231,0l0 0c0.339,0.34 0.339,0.891 0,1.231l-9.333 9.333c-0.34,0.339 -0.891,0.339 -1.231,-0.001l0 0.001c-0.34,-0.34 -0.34,-0.891 0,-1.231z"/>
    <path class="fil38" d="M328.887 138.477l2.691 -2.691c0.34,-0.34 0.891,-0.34 1.231,0l0 0c0.34,0.34 0.34,0.891 0,1.231l-2.691 2.691c-0.34,0.34 -0.891,0.34 -1.231,0l0 0c-0.34,-0.34 -0.34,-0.891 0,-1.231z"/>
    <g>
     <path class="fil38" d="M376.88 101.011c0,0 -7.873,-2.113 -10.587,15.935 -2.714,18.047 -2.733,27.933 -2.733,27.933 0,0 -0.997,3.925 -3.923,2.551 -2.927,-1.375 -7.964,-6.35 -11.38,-4.014 -3.542,2.424 -3.371,7.22 -0.485,13.393 2.887,6.172 8.711,19.914 9.234,21.163 0.516,1.22 0.409,3.312 -1.734,2.694 -2.144,-0.619 -15.894,-8.439 -19.211,-1.696 -3.325,6.746 7.542,22.614 8.695,24.369 1.153,1.755 1.056,2.707 0.3,3.491 -0.755,0.782 -5.132,-2.283 -9.131,-4.35 -3.999,-2.068 -9.004,-3.756 -10.594,0.296 -1.591,4.051 1.949,17.496 21.601,34.691l9.627 7.372 11.323 -4.486c23.645,-11.076 30.773,-23.016 30.366,-27.348 -0.407,-4.333 -5.681,-4.097 -10.099,-3.219 -4.419,0.878 -9.472,2.608 -9.981,1.646 -0.51,-0.962 -0.345,-1.901 1.25,-3.27 1.595,-1.369 16.431,-13.601 15.106,-21.007 -1.324,-7.399 -16.702,-3.694 -18.933,-3.701 -2.228,0.001 -1.746,-2.035 -0.915,-3.067 0.848,-1.051 10.259,-12.645 14.738,-17.777 4.482,-5.124 5.974,-9.691 3.242,-13.001 -2.63,-3.196 -8.854,0.198 -12.045,0.708 -3.191,0.51 -3.06,-3.543 -3.06,-3.543 0,0 2.727,-9.505 5.115,-27.599 2.387,-18.093 -5.961,-18.203 -5.961,-18.203l0.175 0.039zm0 0l0 0 0 0z"/>
    </g>
    <g>
     <path class="fil0" d="M356.358 242.303c1.801,-13.282 4.448,-31.61 7.447,-51.846 2.993,-20.225 5.682,-38.541 7.564,-51.814 0.933,-6.622 1.685,-11.988 2.209,-15.715 0.26,-1.843 0.463,-3.278 0.605,-4.274 0.069,-0.474 0.128,-0.843 0.165,-1.112 0.044,-0.247 0.071,-0.379 0.071,-0.379 0,0 -0.005,0.126 -0.03,0.384 -0.031,0.267 -0.072,0.64 -0.125,1.117 -0.125,0.998 -0.305,2.435 -0.531,4.286 -0.464,3.718 -1.173,9.095 -2.078,15.734 -1.801,13.283 -4.449,31.603 -7.441,51.836 -2.992,20.233 -5.688,38.551 -7.563,51.822l-0.293 -0.039zm0 0l0 0 0 0z"/>
    </g>
    <path class="fil0" d="M355.026 150.666c0.027,-0.015 0.217,0.225 0.559,0.682 0.341,0.45 0.81,1.118 1.377,1.946 1.137,1.666 2.649,3.999 4.269,6.618 1.577,2.575 3.01,4.907 4.112,6.707 0.496,0.794 0.911,1.467 1.257,2.025 0.301,0.477 0.452,0.751 0.425,0.765 -0.027,0.016 -0.224,-0.222 -0.565,-0.672 -0.333,-0.453 -0.802,-1.12 -1.364,-1.957 -1.124,-1.677 -2.604,-4.035 -4.214,-6.649l-4.158 -6.671c-0.495,-0.793 -0.918,-1.464 -1.264,-2.023 -0.302,-0.484 -0.454,-0.758 -0.434,-0.771l0 0zm13.119 18.592c-0.064,-0.093 4.615,-3.426 10.456,-7.432 5.839,-4.013 10.631,-7.188 10.695,-7.096 0.064,0.093 -4.617,3.419 -10.456,7.432 -5.846,4.015 -10.63,7.189 -10.695,7.096zm-5.996 30.864c-0.008,-0.029 0.291,-0.141 0.829,-0.332 0.627,-0.207 1.399,-0.461 2.305,-0.766 1.946,-0.647 4.638,-1.557 7.567,-2.664 2.931,-1.099 5.551,-2.186 7.448,-2.984 0.882,-0.37 1.629,-0.688 2.242,-0.947 0.53,-0.22 0.832,-0.324 0.845,-0.304 0.015,0.027 -0.266,0.181 -0.774,0.451 -0.713,0.364 -1.463,0.729 -2.192,1.065 -2.433,1.129 -4.927,2.174 -7.421,3.101 -2.492,0.937 -5.073,1.807 -7.627,2.554 -0.989,0.288 -1.795,0.504 -2.346,0.644 -0.558,0.142 -0.87,0.21 -0.878,0.18l0.002 0.002zm-15.564 -14.21c0.018,-0.02 0.252,0.153 0.671,0.488 0.412,0.337 1,0.831 1.722,1.445 1.847,1.514 3.779,3.298 5.563,4.883 1.844,1.578 3.75,3.329 5.552,4.977 0.517,0.499 1.086,1.038 1.616,1.549 0.381,0.368 0.581,0.589 0.563,0.61 -0.018,0.02 -0.252,-0.152 -0.672,-0.487 -0.412,-0.337 -0.999,-0.831 -1.721,-1.446 -1.803,-1.574 -3.768,-3.244 -5.586,-4.865 -2.163,-1.924 -4.111,-3.686 -5.501,-4.977 -0.54,-0.526 -1.109,-1.056 -1.64,-1.567 -0.388,-0.366 -0.596,-0.585 -0.57,-0.608l0.003 -0.002zm-8.757 26.573c0.019,-0.02 0.322,0.205 0.853,0.635 0.586,0.487 1.332,1.103 2.214,1.848 1.858,1.574 4.407,3.763 7.204,6.208 2.798,2.445 5.317,4.673 7.127,6.299 0.851,0.776 1.568,1.432 2.13,1.949 0.494,0.464 0.763,0.737 0.745,0.758 -0.018,0.02 -0.322,-0.205 -0.853,-0.635 -0.586,-0.487 -1.331,-1.103 -2.214,-1.848 -2.354,-1.989 -4.808,-4.127 -7.183,-6.185 -2.357,-2.094 -4.833,-4.304 -7.132,-6.338 -0.851,-0.776 -1.568,-1.432 -2.131,-1.948 -0.5,-0.463 -0.762,-0.737 -0.744,-0.758l-0.016 0.015zm19.904 17.136c-0.008,-0.029 0.366,-0.185 1.042,-0.444 0.757,-0.281 1.727,-0.643 2.891,-1.073 2.44,-0.913 5.813,-2.178 9.491,-3.681 3.093,-1.267 6.31,-2.629 9.376,-3.992 0.882,-0.343 1.92,-0.92 2.786,-1.266 0.668,-0.289 1.042,-0.444 1.058,-0.417 0.014,0.027 -0.341,0.225 -0.988,0.562 -0.647,0.339 -1.595,0.813 -2.772,1.372 -3.032,1.456 -6.155,2.858 -9.299,4.133 -3.147,1.264 -6.352,2.482 -9.557,3.572 -0.964,0.317 -1.963,0.646 -2.937,0.938 -0.689,0.208 -1.077,0.312 -1.09,0.292l-0.001 0.004z"/>
    <path class="fil38" d="M352.832 116.861l0.067 0c0.396,5.39 4.58,5.473 4.58,5.473 0,0 -4.613,0.087 -4.613,6.315 0,-6.228 -4.613,-6.315 -4.613,-6.315 0,0 4.181,-0.083 4.578,-5.473l0.001 0z"/>
    <path class="fil41" d="M222.011 116.598l-7.753 28.343 2.766 -3.184c-1.023,0.545 -2.209,0.963 -3.523,1.259 -1.313,0.297 -2.742,0.466 -4.236,0.545 -1.495,0.079 -3.051,0.067 -4.648,0 -1.592,-0.067 -3.22,-0.187 -4.873,-0.327l-0.006 0c-0.124,-0.011 -0.249,-0.016 -0.374,-0.016 -2.301,0 -4.22,1.761 -4.418,4.053 -0.2,2.324 1.452,4.382 3.716,4.751 1.707,0.272 3.438,0.527 5.217,0.733 1.779,0.205 3.601,0.357 5.489,0.399 1.889,0.043 3.844,-0.03 5.865,-0.321 2.015,-0.29 4.109,-0.817 6.155,-1.7 1.258,-0.542 2.227,-1.596 2.662,-2.894l0.097 -0.296 9.303 -27.877c1.047,-3.135 -0.648,-6.519 -3.783,-7.566 -3.135,-1.047 -6.518,0.648 -7.565,3.783 -0.031,0.103 -0.067,0.218 -0.091,0.315l0 0z"/>
    <path class="fil35" d="M262.208 151.105c0,0 0.299,4.197 -2.707,5.307l-31.277 1.204c0,0 -2.101,-2.039 -1.688,-6.928 0,-0.012 13.292,-13.572 35.672,0.417l0 0z"/>
    <path class="fil42" d="M239.242 155.533c0.103,0.798 0.454,1.41 0.787,1.361 0.327,-0.042 0.514,-0.726 0.412,-1.519 -0.104,-0.799 -0.455,-1.41 -0.787,-1.362 -0.333,0.042 -0.515,0.726 -0.412,1.519l0 0.001z"/>
    <path class="fil35" d="M225.945 145.574l0 0.043c0.012,0.117 0.018,0.24 0.025,0.369 0.03,0.492 0.055,1.083 0.073,1.753 0.019,0.541 0.025,1.132 0.031,1.765 0,0.474 0.006,0.966 0.006,1.476 8.894,-3.844 27.081,-1.113 34.402,0.222 -0.073,-0.369 -0.141,-0.732 -0.208,-1.089 -0.049,-0.264 -0.092,-0.523 -0.142,-0.781 -0.485,-2.811 -0.743,-5.338 -0.828,-7.596l-0.019 -0.602c-0.074,-3.352 0.289,-8.119 1.026,-13.027 0.049,-0.338 0.104,-0.677 0.153,-1.009l0.111 -0.664c0.255,-1.62 0.589,-3.256 0.944,-4.86 0.122,-0.542 0.227,-1.089 0.313,-1.63 0.098,-0.603 0.172,-1.206 0.227,-1.803 0.135,-1.513 0.123,-2.989 -0.074,-4.36 -0.35,-2.442 -1.302,-4.545 -3.064,-5.899 -0.995,-0.762 -2.254,-1.291 -3.815,-1.5 -0.51,-0.068 -1.013,-0.136 -1.498,-0.191 -1.53,-0.184 -2.936,-0.313 -4.078,-0.406 -0.375,-0.031 -0.725,-0.055 -1.038,-0.08 -0.799,-0.055 -1.389,-0.092 -1.678,-0.105 -0.072,-0.005 -0.144,-0.011 -0.212,-0.016l-13.654 3.783 -1.302 0.357c-0.553,0.172 -1.075,0.338 -1.561,0.498 -1.204,0.4 -2.229,0.781 -3.114,1.156 -1.093,0.467 -1.965,0.922 -2.653,1.402 -3.01,2.085 -2.58,4.49 -2.568,9.226l0 0.326c0,0.357 -0.006,0.713 -0.018,1.07 -0.012,0.449 -0.037,0.892 -0.074,1.334 -0.061,0.892 0.468,1.762 0.358,2.636 1.431,6.147 1.789,8.197 2.302,12.041 0.443,3.332 0.356,5.227 1.289,5.916 0.209,0.159 0.338,0.245 0.338,0.245z"/>
    <path class="fil41" d="M246.305 106.255c0,0 -1.205,4.557 -5.755,5.822 -5.787,1.604 -6.658,-0.339 -6.658,-0.339 0.111,-0.646 0.17,-1.307 0.17,-1.964 0,-0.178 -0.005,-0.358 -0.013,-0.536 -0.015,-0.331 -0.042,-0.669 -0.079,-0.998 -0.103,-0.933 -0.296,-1.949 -0.569,-3.111 -0.06,-0.272 -0.133,-0.557 -0.205,-0.848l-0.006 -0.036c3.957,-1.489 7.063,-3.722 8.963,-7.027l0.563 -0.442 0.381 -0.302 0.109 0.23 0.018 0.768c0.079,3.613 0.69,5.75 3.081,8.783l0 0z"/>
    <path class="fil35" d="M219.027 219.36c0.115,0 0.23,-0.018 0.345,-0.06l40.612 -14.641c0.392,-0.154 0.65,-0.534 0.65,-0.955 0,-0.567 -0.46,-1.027 -1.027,-1.027 -0.108,0 -0.216,0.017 -0.32,0.051l-40.611 14.641c-0.407,0.146 -0.678,0.532 -0.678,0.965 0,0.566 0.46,1.026 1.027,1.026 0,0 0.001,0 0.002,0l0 0z"/>
    <path class="fil35" d="M261.321 219.361c0.565,-0.002 1.023,-0.461 1.023,-1.027 0,-0.432 -0.271,-0.818 -0.678,-0.965l-41.095 -14.883c-0.104,-0.034 -0.214,-0.052 -0.324,-0.052 -0.567,0 -1.028,0.46 -1.028,1.028 0,0.421 0.258,0.8 0.65,0.955l41.095 14.882c0.127,0.043 0.242,0.061 0.357,0.061l0 0.001z"/>
    <path class="fil35" d="M215.414 245.524c0.877,-0.002 1.618,-0.65 1.737,-1.519l7.336 -54.767 30.691 0 7.22 54.767c0.113,0.871 0.855,1.523 1.734,1.523 0.078,0 0.156,-0.005 0.233,-0.016 0.871,-0.113 1.523,-0.856 1.523,-1.734 0,-0.078 -0.005,-0.156 -0.015,-0.233l-7.421 -56.293c-0.115,-0.871 -0.858,-1.523 -1.737,-1.525l-33.766 0.001c-0.001,-0.001 -0.002,-0.001 -0.002,-0.001 -0.878,0 -1.619,0.65 -1.735,1.52l-7.541 56.292c-0.01,0.076 -0.015,0.154 -0.015,0.231 0,0.88 0.651,1.624 1.522,1.742 0.079,0.012 0.157,0.012 0.236,0.012l0 0z"/>
    <path class="fil35" d="M232.73 187.482l21.927 0c6.948,0 14.387,-3.8 15.452,-10.67 1.01,-6.578 1.534,-13.243 1.534,-19.909 0,-2.094 -0.064,-4.237 -0.159,-6.316 -0.448,-9.229 -4.854,-17.811 -12.111,-23.531 0,0 -4.381,19.089 1.126,45.441 -2.094,10.017 -27.774,14.991 -27.774,14.991l0.005 -0.006z"/>
    <path class="fil36" d="M181.993 222.059l9.793 0c0,0 2.27,-10.87 3.026,-16.97 0.762,-6.095 1.156,-20.548 1.156,-20.548 0,0 7.808,2.536 24.149,1.579 36.205,-2.112 22.478,-28.712 22.478,-28.712 -1.223,1.689 -8.715,0.521 -13.836,1.326 -15.718,1.507 -29.353,7.68 -37.53,11.209 -1.973,0.847 -3.722,1.749 -5.253,2.693 -1.973,1.217 -3.208,4.902 -3.953,9.756 -2.239,14.58 -0.03,39.667 -0.03,39.667l0 0z"/>
    <polygon class="fil41" points="182.265,234.606 189.177,234.606 190.509,226.496 191.235,222.06 182.647,222.06 182.513,226.496 182.265,234.606 "/>
    <polygon class="fil43" points="182.265,234.606 189.177,234.606 190.17,228.566 190.509,226.496 182.514,226.496 182.447,228.645 "/>
    <path class="fil36" d="M165.204 245.525l26.152 0c0.194,-0.351 0.303,-0.853 0.345,-1.453 0.163,-2.215 -0.539,-5.743 -0.89,-7.971 -0.042,-0.26 -0.078,-0.502 -0.109,-0.72 -0.048,-0.375 -0.078,-0.684 -0.078,-0.908 0,-1.816 -1.61,-1.507 -1.61,-1.507 -2.645,2.597 -5.641,-1.295 -7.39,-0.018 0,0 -0.073,0.054 -0.23,0.175 -0.145,0.115 -0.37,0.297 -0.678,0.557 -0.448,0.376 -1.071,0.914 -1.918,1.677 -2.076,1.87 -5.605,3.099 -8.613,4.358 -0.381,0.157 -0.738,0.32 -1.071,0.477 -0.248,0.122 -0.484,0.243 -0.708,0.364 -2.458,1.325 -3.238,2.597 -3.414,3.517 -0.175,0.889 0.212,1.452 0.212,1.452l0 0z"/>
    <path class="fil36" d="M165.204 245.525l26.152 0c0.194,-0.351 0.303,-0.853 0.345,-1.453l-26.709 0c-0.175,0.89 0.212,1.453 0.212,1.453z"/>
    <path class="fil41" d="M247.919 113.465l-8.694 32.054 3.1 -3.6c-1.147,0.617 -2.477,1.086 -3.947,1.424 -1.471,0.332 -3.076,0.528 -4.747,0.611 -1.676,0.089 -3.423,0.071 -5.211,0 -1.788,-0.077 -3.612,-0.208 -5.465,-0.368l-0.011 0c-2.735,-0.237 -5.141,1.809 -5.376,4.566 -0.224,2.628 1.629,4.958 4.17,5.373 1.912,0.309 3.859,0.6 5.853,0.831 1.994,0.232 4.04,0.409 6.158,0.456 2.118,0.048 4.311,-0.035 6.576,-0.367 2.265,-0.332 4.612,-0.925 6.905,-1.922 1.471,-0.64 2.512,-1.856 2.989,-3.268l0.111 -0.332 10.423 -31.532c1.171,-3.547 -0.723,-7.372 -4.241,-8.558 -3.511,-1.181 -7.311,0.729 -8.487,4.275 -0.036,0.113 -0.077,0.249 -0.106,0.357l0 0z"/>
    <path class="fil36" d="M199.048 222.09l9.793 0c0,0 2.27,-10.87 3.026,-16.971 0.763,-6.095 1.157,-20.548 1.157,-20.548 0,0 7.807,2.536 24.148,1.58 36.205,-2.112 22.478,-28.712 22.478,-28.712 -1.222,1.688 -10.397,4.019 -15.518,4.823 -15.717,1.507 -27.671,4.177 -35.847,7.711 -1.974,0.848 -3.723,1.749 -5.254,2.693 -1.973,1.217 -3.208,4.903 -3.953,9.757 -2.244,14.579 -0.03,39.667 -0.03,39.667l0 0z"/>
    <polygon class="fil41" points="199.315,234.642 206.233,234.642 207.565,226.532 208.291,222.09 199.702,222.09 199.563,226.532 199.315,234.642 "/>
    <polygon class="fil44" points="199.315,234.642 206.233,234.642 207.219,228.602 207.565,226.532 199.563,226.532 199.496,228.681 "/>
    <path class="fil36" d="M182.254 245.56l26.151 0c0.194,-0.351 0.303,-0.853 0.345,-1.452 0.164,-2.215 -0.538,-5.744 -0.889,-7.971 -0.042,-0.26 -0.079,-0.502 -0.109,-0.72 -0.049,-0.375 -0.079,-0.684 -0.079,-0.908 0,-1.816 -1.61,-1.507 -1.61,-1.507 -2.645,2.597 -5.64,-1.295 -7.39,-0.018 0,0 -0.072,0.054 -0.229,0.175 -0.146,0.116 -0.37,0.297 -0.678,0.558 -0.448,0.375 -1.072,0.913 -1.919,1.675 -2.076,1.871 -5.604,3.099 -8.612,4.358 -0.382,0.157 -0.739,0.321 -1.072,0.479 -0.248,0.12 -0.484,0.242 -0.708,0.363 -2.457,1.325 -3.238,2.596 -3.414,3.516 -0.169,0.883 0.213,1.452 0.213,1.452l0 0z"/>
    <path class="fil36" d="M182.253 245.56l26.152 0c0.194,-0.351 0.303,-0.853 0.345,-1.452l-26.709 0c-0.169,0.883 0.212,1.452 0.212,1.452l0 0z"/>
    <path class="fil38" d="M145.525 157.096l0 2.716c0,1.566 0.961,2.829 2.155,2.829l149.788 0c1.189,0 2.156,-1.263 2.156,-2.829l0 -2.716c0,-1.559 -0.961,-2.83 -2.156,-2.83l-149.788 0c-1.188,0.008 -2.155,1.272 -2.155,2.83l0 0z"/>
    <path class="fil38" d="M153.184 166.503l134.828 0c0.604,0 1.095,-0.399 1.095,-0.895l0 -4.715 -137.012 0 0 4.715c0,0.496 0.49,0.895 1.089,0.895zm142.115 79.742l-19.101 -79.183 6.711 0 19.095 79.183 -6.705 0zm-130.839 0l19.101 -79.183 -6.706 0 -19.101 79.183 6.706 0z"/>
    <path class="fil35" d="M163.649 112.791l7.021 29.693 0.187 0.78 0.472 1.998c0.204,0.864 0.976,1.476 1.864,1.476l47.299 0c1.235,0 2.155,-1.155 1.87,-2.36l-7.68 -32.471c-0.204,-0.864 -0.976,-1.476 -1.864,-1.476l-47.299 0c-1.241,0.005 -2.155,1.162 -1.87,2.36z"/>
    <path class="fil0" d="M186.629 129.859c0.224,2.046 2.064,3.698 4.11,3.698 2.046,0 3.516,-1.658 3.292,-3.698 -0.224,-2.046 -2.063,-3.698 -4.109,-3.698 -2.046,0 -3.517,1.652 -3.293,3.698l0 0z"/>
    <path class="fil36" d="M210.936 110.436l8.177 36.308 1.38 0c1.234,0 2.148,-1.156 1.864,-2.36l-7.681 -32.471c-0.203,-0.864 -0.975,-1.476 -1.864,-1.476l-1.876 -0.001zm-13.667 36.014l1.297 7.258 -4.286 0 -1.297 -7.258 4.286 0z"/>
    <path class="fil36" d="M204.524 153.053l-0.968 -1.362c-0.348,-0.486 -0.91,-0.774 -1.507,-0.774l-12.994 0c-0.002,0 -0.003,0 -0.005,0 -0.686,0 -1.315,0.382 -1.629,0.992l-0.654 1.253c-0.309,0.587 0.121,1.283 0.781,1.283l16.256 0c0.714,0 1.132,-0.811 0.72,-1.392z"/>
    <path class="fil41" d="M231.138 105.332c0,0 13.098,-1.276 12.177,-9.421 -0.92,-8.145 0.149,-13.795 -8.252,-13.324 -8.4,0.471 -9.674,3.761 -10.027,6.554 -0.353,2.794 2.673,16.312 6.102,16.191l0 0z"/>
    <path class="fil45" d="M220.115 81.979c0,0 1.351,7.559 3.924,7.835 2.573,0.275 1.651,-2.903 1.651,-2.903l-0.694 -3.585 -4.881 -1.347 0 0z"/>
    <path class="fil45" d="M242.376 79.554c-0.345,-2.863 -3.353,-3.668 -3.353,-3.668 -3.019,-1.078 -8.976,0.077 -15.047,2.042 -1.43,0.461 -3.334,-0.255 -4.281,0.545 -1.145,0.968 0.44,4.743 0.44,4.743 3.077,7.018 11.655,3.831 14.22,2.686 0.808,1.804 0.971,4.403 2.662,5.599 0.967,0.678 2.518,0.554 4.078,0.14 0.226,0.349 0.991,0.61 1.185,1.103 0.66,1.648 0.836,4.305 1.014,6.347l0.714 -0.438c0.043,-0.567 6.039,-19.579 -1.632,-19.099l0 0z"/>
    <path class="fil35" d="M107.354 80.982l15.906 0c5.661,0 10.251,4.591 10.251,10.251l0 7.026c0,5.661 -4.59,10.251 -10.251,10.251l-15.906 0c-5.66,0 -10.251,-4.59 -10.251,-10.251l0 -7.026c0,-5.66 4.591,-10.251 10.251,-10.251z"/>
    <path class="fil35" d="M117.696 104.239l0.368 0.368c1.401,1.401 1.401,3.673 0,5.074l-0.368 0.368c-1.4,1.401 -3.673,1.401 -5.073,0l-0.369 -0.368c-1.4,-1.401 -1.4,-3.673 0,-5.074l0.368 -0.368c1.401,-1.401 3.674,-1.401 5.074,0z"/>
    <path class="fil46" d="M119.015 86.902c3.185,0 5.32,2.977 5.32,5.749 0,5.628 -8.866,10.235 -9.028,10.235 -0.161,0 -9.028,-4.607 -9.028,-10.235 0,-2.772 2.136,-5.749 5.321,-5.749 1.82,0 3.016,0.904 3.707,1.71 0.691,-0.806 1.887,-1.71 3.708,-1.71z"/>
   </g>
  </g>
 </g>
</svg>
