<?xml version="1.0" encoding="UTF-8"?>
<!DOCTYPE svg PUBLIC "-//W3C//DTD SVG 1.1//EN" "http://www.w3.org/Graphics/SVG/1.1/DTD/svg11.dtd">
<!-- Creator: CorelDRAW 2021.5 -->
<svg xmlns="http://www.w3.org/2000/svg" xml:space="preserve" width="111px" height="44px" version="1.1" style="shape-rendering:geometricPrecision; text-rendering:geometricPrecision; image-rendering:optimizeQuality; fill-rule:evenodd; clip-rule:evenodd"
viewBox="0 0 2.35 0.93"
 xmlns:xlink="http://www.w3.org/1999/xlink"
 xmlns:xodm="http://www.corel.com/coreldraw/odm/2003">
 <defs>
  <style type="text/css">
   <![CDATA[
    .fil0 {fill:#2B2B2A;fill-rule:nonzero}
    .fil1 {fill:url(#id0)}
    .fil2 {fill:url(#id1);fill-rule:nonzero}
   ]]>
  </style>
  <linearGradient id="id0" gradientUnits="userSpaceOnUse" x1="0" y1="0.31" x2="1.98" y2="0.31">
   <stop offset="0" style="stop-opacity:1; stop-color:#F41E2A"/>
   <stop offset="0.470588" style="stop-opacity:1; stop-color:#F15C22"/>
   <stop offset="1" style="stop-opacity:1; stop-color:#F17F1F"/>
  </linearGradient>
  <linearGradient id="id1" gradientUnits="userSpaceOnUse" x1="1.75" y1="0.31" x2="2.35" y2="0.31">
   <stop offset="0" style="stop-opacity:1; stop-color:#F17920"/>
   <stop offset="0.988235" style="stop-opacity:1; stop-color:#F39148"/>
   <stop offset="1" style="stop-opacity:1; stop-color:#F6A970"/>
  </linearGradient>
 </defs>
 <g id="Layer_x0020_1">
  <metadata id="CorelCorpID_0Corel-Layer"/>
  <path class="fil0" d="M0.14 0.93l0.05 0 0 -0.17 0 0 0.06 0.11 0.05 0 0.05 -0.12 0 0 0 0.18 0.06 0 0 -0.25 -0.08 0 -0.06 0.11 -0.06 -0.11 -0.07 0 0 0.25zm0.48 0l0.02 -0.05 0.13 0 0.03 0.05 0.05 0 -0.11 -0.25 -0.06 0 -0.12 0.25 0.06 0zm0.09 -0.2l0.04 0.1 -0.08 0 0.04 -0.1 0 0zm0.44 0.11c0.04,-0.01 0.06,-0.04 0.06,-0.08 0,-0.04 -0.02,-0.08 -0.09,-0.08l-0.11 0 0 0.25 0.05 0 0 -0.09 0.03 0 0.07 0.09 0.07 0 -0.08 -0.09 0 0zm-0.04 -0.12c0.02,0 0.05,0.01 0.05,0.04 0,0.03 -0.03,0.04 -0.05,0.04l-0.05 0 0 -0.08 0.05 0zm0.41 0.1l0.09 -0.14 -0.07 0 -0.1 0.14 0 -0.14 -0.06 0 0 0.25 0.06 0 0 -0.02 0.04 -0.05 0.06 0.07 0.08 0 -0.1 -0.11zm0.31 0.01l0.12 0 0 -0.05 -0.12 0 0 -0.05 0.13 0 0 -0.05 -0.19 0 0 0.25 0.21 0 0 -0.04 -0.15 0 0 -0.06zm0.38 0.1l0.05 0 0 -0.2 0.09 0 0 -0.05 -0.22 0 0 0.05 0.08 0 0 0.2z"/>
  <path class="fil1" d="M1.88 0l-0.62 0c0.08,0.02 0.15,0.08 0.2,0.15 -0.06,0.03 -0.06,0.03 -0.13,0.06 -0.03,-0.05 -0.09,-0.09 -0.16,-0.09 -0.1,0 -0.19,0.09 -0.19,0.19 0,0.1 0.09,0.19 0.19,0.19 0.07,0 0.14,-0.04 0.17,-0.1l-0.02 0c-0.02,0 -0.09,0 -0.12,0 -0.02,0 -0.03,0 -0.03,0l0 -0.11c0.09,0 0.21,0 0.32,0 0,0.02 0,0.13 -0.03,0.17 -0.04,0.08 -0.11,0.13 -0.19,0.16l0.3 0 0 -0.62 0.13 0 0 0.62 0.2 0 0.08 -0.32 -0.1 -0.3zm-1.74 0.11l0.1 0c0.13,0 0.18,0.08 0.18,0.21 0,0.14 -0.08,0.19 -0.16,0.19l-0.12 0 0 -0.4zm0.95 -0.11l-1.09 0 0 0.01 0 -0.01 0.27 0c0.16,0 0.28,0.1 0.28,0.31 0,0.16 -0.07,0.28 -0.23,0.31l0.33 0 0 -0.62 0.14 0 0 0.62 0.29 0c-0.13,-0.04 -0.23,-0.17 -0.23,-0.31 0,-0.15 0.1,-0.27 0.24,-0.31z"/>
  <polygon class="fil2" points="1.75,0.62 1.91,0.62 2.05,0.4 2.18,0.62 2.35,0.62 2.13,0.29 2.33,0 2.18,0 2.05,0.2 1.93,0 1.77,0 1.97,0.29 "/>
 </g>
</svg>
